<?xml version="1.0" encoding="utf-8"?>
<!-- Generator: Adobe Illustrator 24.1.2, SVG Export Plug-In . SVG Version: 6.00 Build 0)  -->
<svg version="1.1" id="Layer_1" xmlns="http://www.w3.org/2000/svg" xmlns:xlink="http://www.w3.org/1999/xlink" x="0px" y="0px"
	 viewBox="0 0 24 24" style="enable-background:new 0 0 24 24;" xml:space="preserve">
<style type="text/css">
	.st0{fill:none;stroke:#FFFFFF;stroke-width:0.9;stroke-miterlimit:10;}
</style>
<g>
	<polyline class="st0" points="9.8,17.6 12,15.4 13.6,17 15.1,15.6 14.6,12.7 20.1,7.3 20.6,3 16.7,3.1 11,8.9 8,8.5 6.5,10 
		8.2,11.6 6,13.8 	"/>
	<circle class="st0" cx="14.5" cy="9.1" r="0.8"/>
	<line class="st0" x1="9.3" y1="14.3" x2="7.1" y2="16.5"/>
	<path class="st0" d="M7.1,20.4c1.1-1.1,1.1-2.9,0-4c-1.1-1.1-2.9-1.1-4,0"/>
	<path class="st0" d="M9.7,23c1.1-1.1,1.1-2.9,0-4"/>
	<path class="st0" d="M0.6,13.9c1.1-1.1,2.9-1.1,4,0"/>
</g>
</svg>
