<?xml version="1.0" encoding="utf-8"?>
<!-- Generator: Adobe Illustrator 24.1.2, SVG Export Plug-In . SVG Version: 6.00 Build 0)  -->
<svg version="1.1" id="Layer_1" xmlns="http://www.w3.org/2000/svg" xmlns:xlink="http://www.w3.org/1999/xlink" x="0px" y="0px"
	 viewBox="0 0 21 23" style="enable-background:new 0 0 21 23;" xml:space="preserve">
<style type="text/css">
	.st0{fill:#FFFFFF;}
</style>
<g id="Page-1">
	<g id="icon-defi">
		<path id="Shape" class="st0" d="M10.5,22c-0.1,0-0.1,0.1-0.2,0.1c-0.1,0-0.2,0-0.2-0.1l-9.5-4.8c-0.2-0.1-0.3-0.2-0.3-0.4V6.3
			c0-0.2,0.1-0.3,0.3-0.4l9.5-4.8c0.1-0.1,0.3-0.1,0.4,0L20,5.9c0.2,0.1,0.3,0.2,0.3,0.4v10.5c0,0.2-0.1,0.3-0.3,0.4l0,0 M17.1,17.6
			l2.3-1.2V7.1l-8.6,4.3v9.5l3.3-1.6 M1.2,16.5l8.6,4.3v-9.5L1.2,7.1V16.5L1.2,16.5z M2.6,9.7c0-0.3,0.2-0.5,0.5-0.5
			s0.5,0.2,0.5,0.5v6.2c0,0.3-0.2,0.5-0.5,0.5s-0.5-0.2-0.5-0.5V9.7z M4.7,10.5c0-0.3,0.2-0.5,0.5-0.5s0.5,0.2,0.5,0.5v6.2
			c0,0.3-0.2,0.5-0.5,0.5S4.7,17,4.7,16.7V10.5L4.7,10.5z M7.1,11.8c0-0.3,0.2-0.5,0.5-0.5s0.5,0.2,0.5,0.5V18
			c0,0.3-0.2,0.5-0.5,0.5S7.1,18.3,7.1,18C7.1,18,7.1,11.8,7.1,11.8z M7.1,3.7V5l3.7-1.8c0,0,0.1,0,0.1-0.1l0.7-0.4l-1.2-0.6
			L7.1,3.7L7.1,3.7z M6.2,5.4V4.1L1.7,6.3L3,7L6.2,5.4L6.2,5.4z M11.5,3.7v1.2l2.2-1.2l-1.2-0.6L11.5,3.7L11.5,3.7z M10.5,5.4V4.1
			L4,7.5L5.2,8L10.5,5.4L10.5,5.4z M9.4,6.9v1.4l6.7-3.5l-1.4-0.7L9.4,6.9z M8.5,8.8V7.4L6.1,8.5l1.4,0.7l0,0L8.5,8.8L8.5,8.8z
			 M15.8,6v1.8l3.1-1.5l-1.8-1L15.8,6L15.8,6z M14.9,8.3V6.5l-2.3,1.2v1.8L14.9,8.3z M11.6,10V8.1L8.5,9.7l1.8,0.9L11.6,10L11.6,10z
			"/>
	</g>
</g>
</svg>
