<?xml version="1.0" encoding="utf-8"?>
<!-- Generator: Adobe Illustrator 25.0.1, SVG Export Plug-In . SVG Version: 6.00 Build 0)  -->
<svg version="1.1" id="Layer_1" xmlns="http://www.w3.org/2000/svg" xmlns:xlink="http://www.w3.org/1999/xlink" x="0px" y="0px"
	 viewBox="0 0 144.9 35" style="enable-background:new 0 0 144.9 35;" xml:space="preserve">
<style type="text/css">
	.st0{fill:#572FDD;}
</style>
<g>
	<g>
		<path class="st0" d="M21.7,0.5C12.4-1.8,2.9,3.9,0.5,13.3c-2.3,9.4,3.4,18.9,12.7,21.2c9.4,2.3,18.9-3.4,21.2-12.7
			C36.8,12.4,31.1,2.9,21.7,0.5z M16.5,14.3c0.3,0.3,0.7,0.7,1.2,1s1.1,0.6,1.7,1c0.6,0.3,1.1,0.7,1.6,1.2c0.5,0.5,0.8,1,1.1,1.7
			c0.2,0.7,0.2,1.4,0,2.4c-0.2,0.9-0.6,1.7-1,2.3c-0.5,0.6-1.1,1.1-1.7,1.4c-0.3,0.1-0.7,0.3-1,0.4l-0.7,3.1l-2-0.4l0.5-2.4
			c-0.4,0-0.8-0.1-1.3-0.2l-0.5,2.3l-2-0.4l0.5-2.5c-0.4-0.2-0.8-0.4-1.2-0.6c-0.8-0.5-1.6-1.2-2.2-2.1l3.2-2.2
			c0.3,0.6,0.6,1.1,1.1,1.5c0.5,0.4,1,0.7,1.6,0.8c0.3,0.1,0.6,0.1,0.9,0.1c0.3,0,0.6,0,0.9-0.1c0.3-0.1,0.5-0.2,0.7-0.4
			c0.2-0.2,0.3-0.4,0.4-0.7c0.1-0.5,0-0.9-0.3-1.3c-0.3-0.4-0.7-0.7-1.2-1c-0.5-0.3-1.1-0.7-1.7-1c-0.6-0.3-1.2-0.8-1.7-1.2
			c-0.5-0.5-0.9-1-1.1-1.7c-0.3-0.6-0.3-1.4-0.1-2.3c0.2-0.9,0.5-1.6,1-2.2c0.5-0.6,1.1-1,1.8-1.3c0.5-0.2,1-0.4,1.5-0.5l0.6-2.6
			l2,0.4l-0.5,2.1c0.3,0,0.7,0.1,1,0.2c0.1,0,0.2,0,0.2,0.1l0.5-2l2,0.4l-0.5,2.3c0.1,0.1,0.3,0.1,0.4,0.2c0.8,0.5,1.5,1.1,2,1.8
			l-3.1,2.1c-0.2-0.4-0.5-0.8-1-1.1c-0.5-0.3-0.9-0.5-1.4-0.6c-0.3-0.1-0.5-0.1-0.8-0.1c-0.3,0-0.6,0-0.8,0.1
			c-0.3,0.1-0.5,0.2-0.7,0.4c-0.2,0.2-0.3,0.4-0.4,0.7C16.1,13.5,16.2,13.9,16.5,14.3z"/>
	</g>
</g>
<g>
	<g>
		<path d="M49.8,14.9c-0.2-0.3-0.5-0.5-0.9-0.6c-0.4-0.1-0.7-0.2-1-0.2c-0.2,0-0.4,0-0.6,0.1c-0.2,0-0.4,0.1-0.6,0.2
			c-0.2,0.1-0.3,0.2-0.4,0.4c-0.1,0.2-0.2,0.3-0.2,0.6c0,0.4,0.1,0.6,0.4,0.8c0.3,0.2,0.6,0.4,1,0.5c0.4,0.1,0.8,0.3,1.3,0.4
			s0.9,0.3,1.3,0.6c0.4,0.2,0.7,0.6,1,1c0.3,0.4,0.4,1,0.4,1.7c0,0.7-0.1,1.2-0.4,1.7c-0.2,0.5-0.6,0.9-1,1.2
			c-0.4,0.3-0.9,0.6-1.5,0.7c-0.6,0.2-1.1,0.2-1.7,0.2c-0.8,0-1.5-0.1-2.1-0.3c-0.7-0.2-1.3-0.6-1.8-1.1l1.9-2
			c0.3,0.4,0.6,0.6,1,0.8c0.4,0.2,0.8,0.3,1.3,0.3c0.2,0,0.4,0,0.6-0.1c0.2-0.1,0.4-0.1,0.6-0.2c0.2-0.1,0.3-0.2,0.4-0.4
			c0.1-0.2,0.2-0.3,0.2-0.6c0-0.4-0.1-0.6-0.4-0.8c-0.3-0.2-0.6-0.4-1-0.5c-0.4-0.1-0.9-0.3-1.3-0.4c-0.5-0.1-0.9-0.3-1.3-0.6
			c-0.4-0.2-0.8-0.6-1-1c-0.3-0.4-0.4-0.9-0.4-1.6c0-0.6,0.1-1.2,0.4-1.7c0.2-0.5,0.6-0.9,1-1.2c0.4-0.3,0.9-0.6,1.4-0.7
			c0.5-0.2,1.1-0.2,1.7-0.2c0.7,0,1.3,0.1,1.9,0.3s1.2,0.5,1.7,1L49.8,14.9z"/>
		<path d="M58.7,17.7h-2.2v2.7c0,0.2,0,0.4,0,0.6s0.1,0.3,0.2,0.5s0.2,0.2,0.4,0.3c0.2,0.1,0.4,0.1,0.6,0.1c0.1,0,0.3,0,0.5,0
			c0.2,0,0.4-0.1,0.5-0.2v2.1c-0.3,0.1-0.6,0.2-0.9,0.2S57.3,24,57,24c-0.4,0-0.8,0-1.2-0.1c-0.4-0.1-0.7-0.2-0.9-0.4
			c-0.3-0.2-0.5-0.4-0.6-0.8S54,22,54,21.6v-3.9h-1.6v-2H54v-2.4h2.5v2.4h2.2V17.7z"/>
		<path d="M65.1,22.8L65.1,22.8c-0.3,0.4-0.7,0.7-1.1,0.9c-0.5,0.2-1,0.3-1.5,0.3c-0.4,0-0.7-0.1-1.1-0.2c-0.4-0.1-0.7-0.3-0.9-0.5
			s-0.5-0.5-0.6-0.8c-0.2-0.3-0.2-0.7-0.2-1.1c0-0.5,0.1-0.9,0.3-1.2c0.2-0.3,0.4-0.6,0.7-0.8s0.6-0.4,1-0.5s0.8-0.2,1.2-0.3
			c0.4-0.1,0.8-0.1,1.2-0.1c0.4,0,0.8,0,1.1,0c0-0.4-0.2-0.8-0.5-1.1s-0.7-0.4-1.1-0.4c-0.4,0-0.8,0.1-1.1,0.3
			c-0.3,0.2-0.6,0.4-0.9,0.7l-1.3-1.4c0.5-0.4,1-0.8,1.6-1c0.6-0.2,1.3-0.3,1.9-0.3c0.7,0,1.3,0.1,1.8,0.3c0.5,0.2,0.9,0.5,1.1,0.8
			c0.3,0.4,0.5,0.8,0.6,1.3s0.2,1.1,0.2,1.8v4.1h-2.3V22.8z M64.5,20.3c-0.2,0-0.4,0-0.7,0c-0.3,0-0.6,0.1-0.8,0.1s-0.5,0.2-0.7,0.4
			c-0.2,0.2-0.3,0.4-0.3,0.7c0,0.3,0.1,0.5,0.4,0.7c0.3,0.1,0.5,0.2,0.8,0.2c0.2,0,0.5,0,0.7-0.1c0.2-0.1,0.4-0.2,0.6-0.3
			c0.2-0.1,0.3-0.3,0.4-0.5c0.1-0.2,0.2-0.4,0.2-0.7v-0.5H64.5z"/>
		<path d="M74.5,18.3c-0.1-0.2-0.3-0.3-0.5-0.4c-0.2-0.1-0.5-0.2-0.7-0.2c-0.6,0-1.1,0.2-1.5,0.6c-0.4,0.4-0.5,0.9-0.5,1.5
			c0,0.6,0.2,1.1,0.5,1.5s0.8,0.6,1.5,0.6c0.3,0,0.5-0.1,0.7-0.2c0.2-0.1,0.4-0.3,0.5-0.4l1.7,1.7c-0.4,0.4-0.8,0.7-1.4,0.8
			c-0.5,0.2-1,0.2-1.5,0.2c-0.6,0-1.2-0.1-1.8-0.3s-1-0.5-1.4-0.9c-0.4-0.4-0.7-0.8-1-1.3c-0.2-0.5-0.4-1.1-0.4-1.8
			c0-0.6,0.1-1.2,0.4-1.8c0.2-0.5,0.6-1,1-1.3c0.4-0.4,0.9-0.7,1.4-0.9s1.1-0.3,1.8-0.3c0.5,0,1,0.1,1.5,0.2c0.5,0.2,1,0.4,1.4,0.8
			L74.5,18.3z"/>
		<path d="M77,11.2h2.5v7.7l2.8-3.2h3.1l-3.2,3.7l3.3,4.5h-3.2l-2.7-4.1h0v4.1H77V11.2z"/>
		<path d="M99.3,15.1c-0.3-0.3-0.6-0.6-0.9-0.7c-0.4-0.2-0.8-0.3-1.3-0.3s-0.9,0.1-1.4,0.3s-0.8,0.5-1.1,0.8
			c-0.3,0.3-0.5,0.7-0.7,1.2c-0.2,0.5-0.3,1-0.3,1.5c0,0.6,0.1,1.1,0.3,1.5c0.2,0.5,0.4,0.9,0.7,1.2c0.3,0.3,0.7,0.6,1.1,0.8
			c0.4,0.2,0.8,0.3,1.3,0.3c0.5,0,1-0.1,1.4-0.3s0.8-0.5,1-0.9l2.2,1.6c-0.5,0.7-1.1,1.2-1.9,1.6c-0.8,0.3-1.6,0.5-2.4,0.5
			c-0.9,0-1.8-0.1-2.6-0.4c-0.8-0.3-1.5-0.7-2-1.2c-0.6-0.5-1-1.2-1.3-2c-0.3-0.8-0.5-1.6-0.5-2.6s0.2-1.8,0.5-2.6
			c0.3-0.8,0.8-1.4,1.3-2c0.6-0.5,1.2-1,2-1.2c0.8-0.3,1.6-0.4,2.6-0.4c0.3,0,0.7,0,1,0.1c0.4,0.1,0.7,0.2,1.1,0.3s0.7,0.3,1,0.5
			c0.3,0.2,0.6,0.5,0.9,0.8L99.3,15.1z"/>
		<path d="M102.7,15.7h2.5V17h0c0.3-0.5,0.6-0.9,1-1.1c0.4-0.3,0.8-0.4,1.4-0.4c0.1,0,0.3,0,0.4,0c0.1,0,0.3,0,0.4,0.1v2.3
			c-0.2-0.1-0.4-0.1-0.5-0.1s-0.4,0-0.5,0c-0.5,0-0.9,0.1-1.1,0.2s-0.5,0.3-0.6,0.6c-0.2,0.2-0.2,0.5-0.3,0.9c0,0.3-0.1,0.7-0.1,1.1
			v3.4h-2.5V15.7z"/>
		<path d="M114.2,25.1c-0.2,0.4-0.3,0.8-0.5,1.2c-0.2,0.3-0.4,0.6-0.6,0.8c-0.2,0.2-0.5,0.4-0.9,0.5c-0.4,0.1-0.9,0.2-1.5,0.2
			c-0.6,0-1.3-0.1-1.9-0.3l0.3-2.1c0.4,0.2,0.8,0.3,1.2,0.3c0.3,0,0.5,0,0.7-0.1c0.2-0.1,0.3-0.2,0.4-0.3s0.2-0.3,0.3-0.4
			c0.1-0.2,0.2-0.4,0.3-0.6l0.2-0.5l-3.6-8.2h2.7l2.1,5.4h0l1.8-5.4h2.6L114.2,25.1z"/>
		<path d="M119.1,15.7h2.3v1.1h0c0.1-0.1,0.2-0.3,0.4-0.4s0.4-0.3,0.6-0.4c0.2-0.1,0.5-0.2,0.7-0.3c0.3-0.1,0.5-0.1,0.8-0.1
			c0.6,0,1.1,0.1,1.6,0.3c0.5,0.2,0.9,0.5,1.3,0.9c0.4,0.4,0.6,0.8,0.8,1.3c0.2,0.5,0.3,1.1,0.3,1.7c0,0.6-0.1,1.1-0.3,1.6
			c-0.2,0.5-0.4,1-0.7,1.4s-0.7,0.7-1.2,1s-1,0.4-1.6,0.4c-0.5,0-1-0.1-1.5-0.2c-0.5-0.2-0.8-0.4-1.1-0.8h0v4.7h-2.5V15.7z
			 M121.4,19.8c0,0.6,0.2,1.1,0.5,1.5s0.8,0.6,1.5,0.6c0.6,0,1.1-0.2,1.5-0.6c0.4-0.4,0.5-0.9,0.5-1.5c0-0.6-0.2-1.1-0.5-1.5
			c-0.4-0.4-0.8-0.6-1.5-0.6c-0.6,0-1.1,0.2-1.5,0.6C121.5,18.6,121.4,19.1,121.4,19.8z"/>
		<path d="M134.9,17.7h-2.2v2.7c0,0.2,0,0.4,0,0.6s0.1,0.3,0.2,0.5s0.2,0.2,0.4,0.3c0.2,0.1,0.4,0.1,0.6,0.1c0.1,0,0.3,0,0.5,0
			c0.2,0,0.4-0.1,0.5-0.2v2.1c-0.3,0.1-0.6,0.2-0.9,0.2s-0.6,0.1-0.9,0.1c-0.4,0-0.8,0-1.2-0.1c-0.4-0.1-0.7-0.2-0.9-0.4
			c-0.3-0.2-0.5-0.4-0.6-0.8s-0.2-0.7-0.2-1.1v-3.9h-1.6v-2h1.6v-2.4h2.5v2.4h2.2V17.7z"/>
		<path d="M135.8,19.8c0-0.6,0.1-1.2,0.4-1.8c0.2-0.5,0.6-1,1-1.3c0.4-0.4,0.9-0.7,1.4-0.9c0.6-0.2,1.1-0.3,1.8-0.3s1.2,0.1,1.8,0.3
			c0.6,0.2,1,0.5,1.4,0.9c0.4,0.4,0.7,0.8,1,1.3c0.2,0.5,0.4,1.1,0.4,1.8c0,0.6-0.1,1.2-0.4,1.8c-0.2,0.5-0.6,1-1,1.3
			c-0.4,0.4-0.9,0.7-1.4,0.9c-0.6,0.2-1.1,0.3-1.8,0.3s-1.2-0.1-1.8-0.3c-0.6-0.2-1-0.5-1.4-0.9s-0.7-0.8-1-1.3
			C136,21,135.8,20.4,135.8,19.8z M138.4,19.8c0,0.6,0.2,1.1,0.5,1.5c0.4,0.4,0.8,0.6,1.5,0.6s1.1-0.2,1.5-0.6
			c0.4-0.4,0.5-0.9,0.5-1.5c0-0.6-0.2-1.1-0.5-1.5c-0.4-0.4-0.8-0.6-1.5-0.6s-1.1,0.2-1.5,0.6C138.5,18.6,138.4,19.1,138.4,19.8z"/>
	</g>
</g>
</svg>
