<?xml version="1.0" encoding="utf-8"?>
<!-- Generator: Adobe Illustrator 25.0.1, SVG Export Plug-In . SVG Version: 6.00 Build 0)  -->
<svg version="1.1" id="Layer_1" xmlns="http://www.w3.org/2000/svg" xmlns:xlink="http://www.w3.org/1999/xlink" x="0px" y="0px"
	 viewBox="0 0 35 35" style="enable-background:new 0 0 35 35;" xml:space="preserve">
<style type="text/css">
	.st0{fill:#572FDD;}
</style>
<g>
	<g>
		<path class="st0" d="M21.7,0.5C12.4-1.8,2.9,3.9,0.5,13.3c-2.3,9.4,3.4,18.9,12.7,21.2c9.4,2.3,18.9-3.4,21.2-12.7
			C36.8,12.4,31.1,2.9,21.7,0.5z M16.5,14.3c0.3,0.3,0.7,0.7,1.2,1s1.1,0.6,1.7,1c0.6,0.3,1.1,0.7,1.6,1.2c0.5,0.5,0.8,1,1.1,1.7
			c0.2,0.7,0.2,1.4,0,2.4c-0.2,0.9-0.6,1.7-1,2.3c-0.5,0.6-1.1,1.1-1.7,1.4c-0.3,0.1-0.7,0.3-1,0.4l-0.7,3.1l-2-0.4l0.5-2.4
			c-0.4,0-0.8-0.1-1.3-0.2l-0.5,2.3l-2-0.4l0.5-2.5c-0.4-0.2-0.8-0.4-1.2-0.6c-0.8-0.5-1.6-1.2-2.2-2.1l3.2-2.2
			c0.3,0.6,0.6,1.1,1.1,1.5c0.5,0.4,1,0.7,1.6,0.8c0.3,0.1,0.6,0.1,0.9,0.1c0.3,0,0.6,0,0.9-0.1c0.3-0.1,0.5-0.2,0.7-0.4
			c0.2-0.2,0.3-0.4,0.4-0.7c0.1-0.5,0-0.9-0.3-1.3c-0.3-0.4-0.7-0.7-1.2-1c-0.5-0.3-1.1-0.7-1.7-1c-0.6-0.3-1.2-0.8-1.7-1.2
			c-0.5-0.5-0.9-1-1.1-1.7c-0.3-0.6-0.3-1.4-0.1-2.3c0.2-0.9,0.5-1.6,1-2.2c0.5-0.6,1.1-1,1.8-1.3c0.5-0.2,1-0.4,1.5-0.5l0.6-2.6
			l2,0.4l-0.5,2.1c0.3,0,0.7,0.1,1,0.2c0.1,0,0.2,0,0.2,0.1l0.5-2l2,0.4l-0.5,2.3c0.1,0.1,0.3,0.1,0.4,0.2c0.8,0.5,1.5,1.1,2,1.8
			l-3.1,2.1c-0.2-0.4-0.5-0.8-1-1.1c-0.5-0.3-0.9-0.5-1.4-0.6c-0.3-0.1-0.5-0.1-0.8-0.1c-0.3,0-0.6,0-0.8,0.1
			c-0.3,0.1-0.5,0.2-0.7,0.4c-0.2,0.2-0.3,0.4-0.4,0.7C16.1,13.5,16.2,13.9,16.5,14.3z"/>
	</g>
</g>
</svg>
