<?xml version="1.0" encoding="utf-8"?>
<!-- Generator: Adobe Illustrator 25.0.1, SVG Export Plug-In . SVG Version: 6.00 Build 0)  -->
<svg version="1.1" id="Layer_1" xmlns="http://www.w3.org/2000/svg" xmlns:xlink="http://www.w3.org/1999/xlink" x="0px" y="0px"
	 viewBox="0 0 224.1 301.1" style="enable-background:new 0 0 224.1 301.1;" xml:space="preserve">
<style type="text/css">
	.st0{fill:url(#SVGID_1_);}
	.st1{fill:url(#SVGID_2_);}
	.st2{fill:url(#SVGID_3_);}
	.st3{opacity:0.39;fill:url(#SVGID_4_);enable-background:new    ;}
	.st4{fill:url(#SVGID_5_);}
	.st5{fill:url(#SVGID_6_);}
	.st6{fill:url(#SVGID_7_);}
	.st7{fill:url(#SVGID_8_);}
	.st8{fill:#FFFFFF;}
	.st9{fill:url(#SVGID_9_);}
	.st10{fill:url(#SVGID_10_);}
	.st11{opacity:0.44;fill:url(#SVGID_11_);enable-background:new    ;}
	.st12{fill:url(#SVGID_12_);}
	.st13{fill:url(#SVGID_13_);}
	.st14{fill:url(#SVGID_14_);}
	.st15{opacity:0.67;}
	.st16{fill:url(#SVGID_15_);}
	.st17{fill:url(#SVGID_16_);}
	.st18{fill:url(#SVGID_17_);}
	.st19{fill:url(#SVGID_18_);}
	.st20{fill:url(#SVGID_19_);}
	.st21{fill:url(#SVGID_20_);}
	.st22{fill:url(#SVGID_21_);}
	.st23{fill:url(#SVGID_22_);}
	.st24{fill:url(#SVGID_23_);}
	.st25{fill:url(#SVGID_24_);}
	.st26{fill:url(#SVGID_25_);}
	.st27{fill:url(#SVGID_26_);}
	.st28{fill:url(#SVGID_27_);}
	.st29{fill:url(#SVGID_28_);}
	.st30{fill:url(#SVGID_29_);}
	.st31{fill:url(#SVGID_30_);}
	.st32{fill:url(#SVGID_31_);}
	.st33{fill:url(#SVGID_32_);}
	.st34{fill:url(#SVGID_33_);}
	.st35{fill:url(#SVGID_34_);}
	.st36{fill:url(#SVGID_35_);}
	.st37{fill:url(#SVGID_36_);}
	.st38{fill:url(#SVGID_37_);}
	.st39{fill:url(#SVGID_38_);}
	.st40{fill:url(#SVGID_39_);}
	.st41{opacity:0.25;fill:url(#SVGID_40_);enable-background:new    ;}
	.st42{opacity:0.65;fill:url(#SVGID_41_);enable-background:new    ;}
	.st43{opacity:0.5;fill:url(#SVGID_42_);enable-background:new    ;}
	.st44{fill:url(#SVGID_43_);}
	.st45{fill:url(#SVGID_44_);}
	.st46{opacity:0.67;fill:url(#SVGID_45_);enable-background:new    ;}
	.st47{fill:url(#SVGID_46_);}
	.st48{opacity:0.25;fill:url(#SVGID_47_);enable-background:new    ;}
	.st49{opacity:0.65;fill:url(#SVGID_48_);enable-background:new    ;}
	.st50{opacity:0.5;fill:url(#SVGID_49_);enable-background:new    ;}
	.st51{fill:url(#SVGID_50_);}
	.st52{fill:url(#SVGID_51_);}
	.st53{opacity:0.67;fill:url(#SVGID_52_);enable-background:new    ;}
	.st54{fill:url(#SVGID_53_);}
</style>
<g>
	<g>
		
			<linearGradient id="SVGID_1_" gradientUnits="userSpaceOnUse" x1="6.755661e-02" y1="67.3597" x2="224.0576" y2="67.3597" gradientTransform="matrix(1 0 0 -1 0 304)">
			<stop  offset="0" style="stop-color:#14A4DB"/>
			<stop  offset="0.1958" style="stop-color:#1AABDC"/>
			<stop  offset="0.4773" style="stop-color:#2BBEE0"/>
			<stop  offset="0.809" style="stop-color:#46DDE5"/>
			<stop  offset="1" style="stop-color:#58F2E9"/>
		</linearGradient>
		<path class="st0" d="M219.5,229.6l-94.8-54.7c-3.2-1.8-7.4-2.7-11.8-2.7c-5.4,0-11,1.3-15.4,3.9L6.6,228.4
			c-4.2,2.5-6.7,5.7-6.6,8.9c0.1,2.5,1.7,4.8,4.6,6.4l94.8,54.7c7,4,19.2,3.5,27.2-1.1l90.8-52.4c4.3-2.5,6.7-5.8,6.6-9
			C223.9,233.4,222.4,231.2,219.5,229.6z"/>
		
			<linearGradient id="SVGID_2_" gradientUnits="userSpaceOnUse" x1="78.2064" y1="84.4247" x2="275.1935" y2="84.4247" gradientTransform="matrix(1 0 0 -1 0 304)">
			<stop  offset="0" style="stop-color:#3F51B5"/>
			<stop  offset="0.2126" style="stop-color:#3C58BB"/>
			<stop  offset="0.5181" style="stop-color:#346BCC"/>
			<stop  offset="0.8783" style="stop-color:#268AE8"/>
			<stop  offset="1" style="stop-color:#2196F3"/>
		</linearGradient>
		<path class="st1" d="M219.4,212.5l-94.8-54.7c-3.2-1.8-7.4-2.7-11.8-2.7c-5.4,0-11,1.3-15.4,3.9L6.6,211.4
			c-4.2,2.5-6.7,5.7-6.6,8.9c0.1,2.5,1.7,4.8,4.6,6.4l94.8,54.7c7,4,19.2,3.5,27.2-1.1l90.8-52.4c4.3-2.5,6.7-5.8,6.6-9
			C223.9,216.3,222.3,214.2,219.4,212.5z"/>
		
			<linearGradient id="SVGID_3_" gradientUnits="userSpaceOnUse" x1="112.0626" y1="40.3395" x2="112.0626" y2="158.9753" gradientTransform="matrix(1 0 0 -1 0 304)">
			<stop  offset="0" style="stop-color:#14A4DB"/>
			<stop  offset="0.1958" style="stop-color:#1AABDC"/>
			<stop  offset="0.4773" style="stop-color:#2BBEE0"/>
			<stop  offset="0.809" style="stop-color:#46DDE5"/>
			<stop  offset="1" style="stop-color:#58F2E9"/>
		</linearGradient>
		<path class="st2" d="M219.5,209.9l-94.8-54.7c-3.2-1.8-7.4-2.7-11.8-2.7c-5.4,0-11,1.3-15.4,3.9L6.6,208.8
			c-4.2,2.5-6.7,5.7-6.6,8.9c0.1,2.5,1.7,4.8,4.6,6.4l94.8,54.7c7,4,19.2,3.5,27.2-1.1l90.8-52.4c4.3-2.5,6.7-5.8,6.6-9
			C223.9,213.8,222.4,211.6,219.5,209.9z"/>
		
			<linearGradient id="SVGID_4_" gradientUnits="userSpaceOnUse" x1="16.75" y1="90.8555" x2="172.32" y2="90.8555" gradientTransform="matrix(1 0 0 -1 0 304)">
			<stop  offset="0" style="stop-color:#3F51B5"/>
			<stop  offset="0.2126" style="stop-color:#3C58BB"/>
			<stop  offset="0.5181" style="stop-color:#346BCC"/>
			<stop  offset="0.8783" style="stop-color:#268AE8"/>
			<stop  offset="1" style="stop-color:#2196F3"/>
		</linearGradient>
		<path class="st3" d="M152.7,240c-26.1,15.1-72.3,11.4-100.9,1.8c-30.5-10.3-35-18.2-35.1-27.6c0-14,20.9-22.1,41.3-28.8
			c28.6-9.4,68.5-15,94.6,0.1C178.8,200.6,178.9,225,152.7,240z"/>
		
			<linearGradient id="SVGID_5_" gradientUnits="userSpaceOnUse" x1="49.49" y1="94.84" x2="174.65" y2="94.84" gradientTransform="matrix(1 0 0 -1 0 304)">
			<stop  offset="0" style="stop-color:#14A4DB"/>
			<stop  offset="0.1958" style="stop-color:#1AABDC"/>
			<stop  offset="0.4773" style="stop-color:#2BBEE0"/>
			<stop  offset="0.809" style="stop-color:#46DDE5"/>
			<stop  offset="1" style="stop-color:#58F2E9"/>
		</linearGradient>
		<ellipse class="st4" cx="112.1" cy="209.2" rx="62.6" ry="36.1"/>
		
			<linearGradient id="SVGID_6_" gradientUnits="userSpaceOnUse" x1="49.49" y1="97.51" x2="174.65" y2="97.51" gradientTransform="matrix(1 0 0 -1 0 304)">
			<stop  offset="0" style="stop-color:#3F51B5"/>
			<stop  offset="0.2126" style="stop-color:#3C58BB"/>
			<stop  offset="0.5181" style="stop-color:#346BCC"/>
			<stop  offset="0.8783" style="stop-color:#268AE8"/>
			<stop  offset="1" style="stop-color:#2196F3"/>
		</linearGradient>
		<ellipse class="st5" cx="112.1" cy="206.5" rx="62.6" ry="36.1"/>
		
			<linearGradient id="SVGID_7_" gradientUnits="userSpaceOnUse" x1="51.81" y1="102.9888" x2="172.31" y2="102.9888" gradientTransform="matrix(1 0 0 -1 0 304)">
			<stop  offset="0" style="stop-color:#14A4DB"/>
			<stop  offset="0.1958" style="stop-color:#1AABDC"/>
			<stop  offset="0.4773" style="stop-color:#2BBEE0"/>
			<stop  offset="0.809" style="stop-color:#46DDE5"/>
			<stop  offset="1" style="stop-color:#58F2E9"/>
		</linearGradient>
		<path class="st6" d="M51.8,164.8v37.6l0,0c0,8.9,5.8,17.8,17.6,24.6c23.5,13.6,61.7,13.6,85.3,0c11.7-6.8,17.5-15.6,17.6-24.4h0
			v-37.8L51.8,164.8L51.8,164.8z"/>
		
			<linearGradient id="SVGID_8_" gradientUnits="userSpaceOnUse" x1="68.5608" y1="140.57" x2="251.8782" y2="140.57" gradientTransform="matrix(1 0 0 -1 0 304)">
			<stop  offset="0" style="stop-color:#58F2E9"/>
			<stop  offset="0.248" style="stop-color:#40D4E4"/>
			<stop  offset="0.5563" style="stop-color:#28B5DF"/>
			<stop  offset="0.818" style="stop-color:#19A2DC"/>
			<stop  offset="1" style="stop-color:#149BDB"/>
		</linearGradient>
		<ellipse class="st7" cx="112.1" cy="163.4" rx="60.3" ry="34.8"/>
		<g>
			<path class="st8" d="M112,192.2c-14.3,0-28.6-3.1-39.5-9.4c-10.6-6.1-16.4-14.2-16.4-22.9c0-8.7,5.8-16.8,16.4-22.9
				c21.8-12.6,57.2-12.6,79,0c10.6,6.1,16.4,14.2,16.4,22.9c0,8.7-5.8,16.8-16.4,22.9l-0.1-0.2l0.1,0.2
				C140.6,189.1,126.3,192.2,112,192.2z M112,128c-14.2,0-28.5,3.1-39.3,9.4c-10.5,6-16.2,14.1-16.2,22.6s5.8,16.5,16.2,22.6
				c21.7,12.5,56.9,12.5,78.6,0c10.5-6,16.2-14.1,16.2-22.6s-5.8-16.5-16.2-22.6C140.4,131.1,126.2,128,112,128z"/>
		</g>
		
			<linearGradient id="SVGID_9_" gradientUnits="userSpaceOnUse" x1="67.8856" y1="132.7213" x2="162.0316" y2="132.7213" gradientTransform="matrix(1 0 0 -1 0 304)">
			<stop  offset="0" style="stop-color:#3F51B5"/>
			<stop  offset="0.2126" style="stop-color:#3C58BB"/>
			<stop  offset="0.5181" style="stop-color:#346BCC"/>
			<stop  offset="0.8783" style="stop-color:#268AE8"/>
			<stop  offset="1" style="stop-color:#2196F3"/>
		</linearGradient>
		<path class="st9" d="M60.4,154.7v3.2l0,0c0,7.6,5,15.3,15.1,21.1c20.2,11.6,52.9,11.6,73.1,0c10-5.8,15-13.4,15.1-20.9h0v-3.4
			H60.4z"/>
		
			<linearGradient id="SVGID_10_" gradientUnits="userSpaceOnUse" x1="112.07" y1="203.2229" x2="112.07" y2="136.8598" gradientTransform="matrix(1 0 0 -1 0 304)">
			<stop  offset="0" style="stop-color:#14A4DB"/>
			<stop  offset="0.1958" style="stop-color:#1AABDC"/>
			<stop  offset="0.4773" style="stop-color:#2BBEE0"/>
			<stop  offset="0.809" style="stop-color:#46DDE5"/>
			<stop  offset="1" style="stop-color:#58F2E9"/>
		</linearGradient>
		<ellipse class="st10" cx="112.1" cy="154.7" rx="51.7" ry="29.8"/>
		
			<linearGradient id="SVGID_11_" gradientUnits="userSpaceOnUse" x1="111.99" y1="171.6506" x2="111.99" y2="144.1228" gradientTransform="matrix(1 0 0 -1 0 304)">
			<stop  offset="0" style="stop-color:#14A4DB"/>
			<stop  offset="0.1958" style="stop-color:#1AABDC"/>
			<stop  offset="0.4773" style="stop-color:#2BBEE0"/>
			<stop  offset="0.809" style="stop-color:#46DDE5"/>
			<stop  offset="1" style="stop-color:#58F2E9"/>
		</linearGradient>
		<ellipse class="st11" cx="112" cy="154.7" rx="21.4" ry="12.4"/>
		
			<linearGradient id="SVGID_12_" gradientUnits="userSpaceOnUse" x1="112.385" y1="166.3772" x2="112.385" y2="145.814" gradientTransform="matrix(1 0 0 -1 0 304)">
			<stop  offset="0" style="stop-color:#14A4DB"/>
			<stop  offset="0.1958" style="stop-color:#1AABDC"/>
			<stop  offset="0.4773" style="stop-color:#2BBEE0"/>
			<stop  offset="0.809" style="stop-color:#46DDE5"/>
			<stop  offset="1" style="stop-color:#58F2E9"/>
		</linearGradient>
		<path class="st12" d="M123.7,160.9c-6.2,3.6-16.4,3.6-22.7,0c-6.2-3.6-6.2-9.5,0-13.1s16.4-3.6,22.7,0
			C130,151.4,130,157.3,123.7,160.9z"/>
		<g>
			<path class="st8" d="M143.7,229.5l0.2-0.1c0.8-0.5,1.5-1.8,1.5-2.9v-29.4c0-1.1-0.7-1.6-1.5-1.1l-0.2,0.1
				c-0.8,0.5-1.5,1.8-1.5,2.9v29.4C142.2,229.4,142.9,229.9,143.7,229.5z"/>
			
				<linearGradient id="SVGID_13_" gradientUnits="userSpaceOnUse" x1="143.79" y1="65.7792" x2="143.79" y2="92.6932" gradientTransform="matrix(1 0 0 -1 0 304)">
				<stop  offset="0" style="stop-color:#3F51B5"/>
				<stop  offset="0.2126" style="stop-color:#3C58BB"/>
				<stop  offset="0.5181" style="stop-color:#346BCC"/>
				<stop  offset="0.8783" style="stop-color:#268AE8"/>
				<stop  offset="1" style="stop-color:#2196F3"/>
			</linearGradient>
			<path class="st13" d="M143.7,229.5l0.2-0.1c0.8-0.5,1.5-1.8,1.5-2.9v-8.9c0-1.1-0.7-1.6-1.5-1.1l-0.2,0.1
				c-0.8,0.5-1.5,1.8-1.5,2.9v8.9C142.2,229.4,142.9,229.9,143.7,229.5z"/>
		</g>
		<path class="st8" d="M156.5,192.7c0,0.3,0.2,0.5,0.5,0.3c0.3-0.2,0.5-0.6,0.5-0.9c0-0.3-0.2-0.5-0.5-0.3
			C156.8,192,156.5,192.4,156.5,192.7z"/>
		<path class="st8" d="M152.5,195c0,0.3,0.2,0.5,0.5,0.3c0.3-0.2,0.5-0.6,0.5-0.9c0-0.3-0.2-0.5-0.5-0.3
			C152.8,194.3,152.5,194.7,152.5,195z"/>
		<path class="st8" d="M156.5,197.1c0,0.3,0.2,0.5,0.5,0.3c0.3-0.2,0.5-0.6,0.5-0.9c0-0.3-0.2-0.5-0.5-0.3
			C156.8,196.3,156.5,196.8,156.5,197.1z"/>
		<path class="st8" d="M152.5,199.4c0,0.3,0.2,0.5,0.5,0.3c0.3-0.2,0.5-0.6,0.5-0.9c0-0.3-0.2-0.5-0.5-0.3
			C152.8,198.7,152.5,199.1,152.5,199.4z"/>
		<path class="st8" d="M199.6,220.1c2.8,1.6,7.3,1.6,10.1,0c2.8-1.6,2.8-4.2,0-5.8s-7.3-1.6-10.1,0
			C196.8,215.9,196.8,218.5,199.6,220.1z"/>
		
			<linearGradient id="SVGID_14_" gradientUnits="userSpaceOnUse" x1="78.3099" y1="7.948" x2="155.4506" y2="56.3084" gradientTransform="matrix(1 0 0 -1 0 304)">
			<stop  offset="0" style="stop-color:#14A4DB"/>
			<stop  offset="0.1958" style="stop-color:#1AABDC"/>
			<stop  offset="0.4773" style="stop-color:#2BBEE0"/>
			<stop  offset="0.809" style="stop-color:#46DDE5"/>
			<stop  offset="1" style="stop-color:#58F2E9"/>
		</linearGradient>
		<path class="st14" d="M124.1,262.9l18.6-10.8l2.8,1.6l-18.6,10.8L124.1,262.9z M122.4,267.1l2.8-1.6l-2.8-1.6l-2.8,1.6
			L122.4,267.1z M117.7,269.8l2.8-1.6l-2.8-1.6l-2.8,1.6L117.7,269.8z M113.5,272.2l2.8-1.6l-2.8-1.6l-2.8,1.6L113.5,272.2z
			 M131.3,267l18.6-10.8l-2.8-1.6l-18.6,10.8L131.3,267z M126.8,269.6l2.8-1.6l-2.8-1.6L124,268L126.8,269.6z M122.1,272.3l2.8-1.6
			l-2.8-1.6l-2.8,1.6L122.1,272.3z M117.9,274.8l2.8-1.6l-2.8-1.6l-2.8,1.6L117.9,274.8z"/>
		<g class="st15">
			
				<linearGradient id="SVGID_15_" gradientUnits="userSpaceOnUse" x1="-2823.5999" y1="-8750.6084" x2="-2751.0898" y2="-8750.6084" gradientTransform="matrix(0 1 1 0 8823.0986 2867.2297)">
				<stop  offset="0.101" style="stop-color:#FFFFFF"/>
				<stop  offset="0.1637" style="stop-color:#FFFFFF"/>
				<stop  offset="0.3019" style="stop-color:#004E83"/>
				<stop  offset="0.5" style="stop-color:#00BDF2"/>
				<stop  offset="1" style="stop-color:#FFFFFF"/>
			</linearGradient>
			<rect x="71.9" y="43.6" class="st16" width="1.1" height="72.5"/>
		</g>
		<g class="st15">
			
				<linearGradient id="SVGID_16_" gradientUnits="userSpaceOnUse" x1="-2839.6997" y1="-8669.4033" x2="-2772.2698" y2="-8669.4033" gradientTransform="matrix(0 1 1 0 8823.0986 2867.2297)">
				<stop  offset="0.101" style="stop-color:#FFFFFF"/>
				<stop  offset="0.1637" style="stop-color:#FFFFFF"/>
				<stop  offset="0.3019" style="stop-color:#004E83"/>
				<stop  offset="0.5" style="stop-color:#00BDF2"/>
				<stop  offset="1" style="stop-color:#FFFFFF"/>
			</linearGradient>
			<rect x="153.1" y="27.5" class="st17" width="1.1" height="67.4"/>
		</g>
		<g class="st15">
			<linearGradient id="SVGID_17_" gradientUnits="userSpaceOnUse" x1="90.36" y1="164.91" x2="90.36" y2="96.88">
				<stop  offset="0.101" style="stop-color:#FFFFFF"/>
				<stop  offset="0.1637" style="stop-color:#FFFFFF"/>
				<stop  offset="0.3019" style="stop-color:#004E83"/>
				<stop  offset="0.5" style="stop-color:#00BDF2"/>
				<stop  offset="1" style="stop-color:#FFFFFF"/>
			</linearGradient>
			<rect x="89.8" y="96.9" class="st18" width="1.1" height="68"/>
		</g>
		<g class="st15">
			
				<linearGradient id="SVGID_18_" gradientUnits="userSpaceOnUse" x1="-2864.4497" y1="-8702.1885" x2="-2777.0498" y2="-8702.1885" gradientTransform="matrix(0 1 1 0 8823.0986 2867.2297)">
				<stop  offset="0.101" style="stop-color:#FFFFFF"/>
				<stop  offset="0.1637" style="stop-color:#FFFFFF"/>
				<stop  offset="0.3019" style="stop-color:#004E83"/>
				<stop  offset="0.5" style="stop-color:#00BDF2"/>
				<stop  offset="1" style="stop-color:#FFFFFF"/>
			</linearGradient>
			<rect x="120.3" y="2.8" class="st19" width="1.1" height="87.4"/>
		</g>
		
			<linearGradient id="SVGID_19_" gradientUnits="userSpaceOnUse" x1="79.96" y1="233.8271" x2="79.96" y2="235.8315" gradientTransform="matrix(1 0 0 -1 0 304)">
			<stop  offset="0" style="stop-color:#14A4DB"/>
			<stop  offset="0.1958" style="stop-color:#1AABDC"/>
			<stop  offset="0.4773" style="stop-color:#2BBEE0"/>
			<stop  offset="0.809" style="stop-color:#46DDE5"/>
			<stop  offset="1" style="stop-color:#58F2E9"/>
		</linearGradient>
		<circle class="st20" cx="80" cy="68.9" r="0.8"/>
		
			<linearGradient id="SVGID_20_" gradientUnits="userSpaceOnUse" x1="125.52" y1="259.2995" x2="125.52" y2="261.3038" gradientTransform="matrix(1 0 0 -1 0 304)">
			<stop  offset="0" style="stop-color:#14A4DB"/>
			<stop  offset="0.1958" style="stop-color:#1AABDC"/>
			<stop  offset="0.4773" style="stop-color:#2BBEE0"/>
			<stop  offset="0.809" style="stop-color:#46DDE5"/>
			<stop  offset="1" style="stop-color:#58F2E9"/>
		</linearGradient>
		<circle class="st21" cx="125.5" cy="43.4" r="0.8"/>
		
			<linearGradient id="SVGID_21_" gradientUnits="userSpaceOnUse" x1="134.83" y1="279.5756" x2="134.83" y2="281.5801" gradientTransform="matrix(1 0 0 -1 0 304)">
			<stop  offset="0" style="stop-color:#14A4DB"/>
			<stop  offset="0.1958" style="stop-color:#1AABDC"/>
			<stop  offset="0.4773" style="stop-color:#2BBEE0"/>
			<stop  offset="0.809" style="stop-color:#46DDE5"/>
			<stop  offset="1" style="stop-color:#58F2E9"/>
		</linearGradient>
		<path class="st22" d="M135.6,23.1c0,0.5-0.4,0.8-0.8,0.8s-0.8-0.4-0.8-0.8c0-0.5,0.4-0.8,0.8-0.8
			C135.3,22.3,135.6,22.7,135.6,23.1z"/>
		
			<linearGradient id="SVGID_22_" gradientUnits="userSpaceOnUse" x1="107.9" y1="296.7568" x2="107.9" y2="303.6468" gradientTransform="matrix(1 0 0 -1 0 304)">
			<stop  offset="0" style="stop-color:#14A4DB"/>
			<stop  offset="0.1958" style="stop-color:#1AABDC"/>
			<stop  offset="0.4773" style="stop-color:#2BBEE0"/>
			<stop  offset="0.809" style="stop-color:#46DDE5"/>
			<stop  offset="1" style="stop-color:#58F2E9"/>
		</linearGradient>
		<path class="st23" d="M110.7,2.8c0,1.5-1.2,2.8-2.8,2.8c-1.5,0-2.8-1.2-2.8-2.8c0-1.5,1.2-2.8,2.8-2.8S110.7,1.2,110.7,2.8z"/>
		
			<linearGradient id="SVGID_23_" gradientUnits="userSpaceOnUse" x1="66.64" y1="263.0406" x2="66.64" y2="265.0451" gradientTransform="matrix(1 0 0 -1 0 304)">
			<stop  offset="0" style="stop-color:#14A4DB"/>
			<stop  offset="0.1958" style="stop-color:#1AABDC"/>
			<stop  offset="0.4773" style="stop-color:#2BBEE0"/>
			<stop  offset="0.809" style="stop-color:#46DDE5"/>
			<stop  offset="1" style="stop-color:#58F2E9"/>
		</linearGradient>
		<path class="st24" d="M67.4,39.7c0,0.5-0.4,0.8-0.8,0.8s-0.8-0.4-0.8-0.8s0.4-0.8,0.8-0.8S67.4,39.2,67.4,39.7z"/>
		
			<linearGradient id="SVGID_24_" gradientUnits="userSpaceOnUse" x1="154.5" y1="173.4141" x2="154.5" y2="175.4184" gradientTransform="matrix(1 0 0 -1 0 304)">
			<stop  offset="0" style="stop-color:#14A4DB"/>
			<stop  offset="0.1958" style="stop-color:#1AABDC"/>
			<stop  offset="0.4773" style="stop-color:#2BBEE0"/>
			<stop  offset="0.809" style="stop-color:#46DDE5"/>
			<stop  offset="1" style="stop-color:#58F2E9"/>
		</linearGradient>
		<path class="st25" d="M155.3,129.3c0,0.4-0.4,0.8-0.8,0.8s-0.8-0.4-0.8-0.8s0.4-0.8,0.8-0.8S155.3,128.8,155.3,129.3z"/>
		<path class="st8" d="M81.1,136.5c0,0.4-0.4,0.8-0.8,0.8s-0.8-0.4-0.8-0.8s0.4-0.8,0.8-0.8C80.7,135.7,81.1,136.1,81.1,136.5z"/>
		<circle class="st8" cx="126.3" cy="173" r="0.8"/>
		<g>
			
				<linearGradient id="SVGID_25_" gradientUnits="userSpaceOnUse" x1="-375.4304" y1="-2181.7019" x2="-375.4304" y2="-2154.0991" gradientTransform="matrix(0.866 0.5 0 -1.1547 402.8877 -2101.1614)">
				<stop  offset="0" style="stop-color:#3F51B5"/>
				<stop  offset="0.2126" style="stop-color:#3C58BB"/>
				<stop  offset="0.5181" style="stop-color:#346BCC"/>
				<stop  offset="0.8783" style="stop-color:#268AE8"/>
				<stop  offset="1" style="stop-color:#2196F3"/>
			</linearGradient>
			<path class="st26" d="M77.8,222.5L77.8,222.5c-0.2-0.1-0.4-0.4-0.4-0.6V197c0-0.2,0.1-0.3,0.3-0.2l0.1,0c0.2,0.1,0.3,0.4,0.3,0.6
				v24.9C78.1,222.5,78,222.6,77.8,222.5z"/>
			
				<linearGradient id="SVGID_26_" gradientUnits="userSpaceOnUse" x1="-372.9015" y1="-2181.7021" x2="-372.9015" y2="-2154.0989" gradientTransform="matrix(0.866 0.5 0 -1.1547 402.8877 -2101.1614)">
				<stop  offset="0" style="stop-color:#3F51B5"/>
				<stop  offset="0.2126" style="stop-color:#3C58BB"/>
				<stop  offset="0.5181" style="stop-color:#346BCC"/>
				<stop  offset="0.8783" style="stop-color:#268AE8"/>
				<stop  offset="1" style="stop-color:#2196F3"/>
			</linearGradient>
			<path class="st27" d="M80,223.8L80,223.8c-0.2-0.1-0.4-0.4-0.4-0.6v-24.9c0-0.2,0.1-0.3,0.3-0.2l0.1,0c0.2,0.1,0.3,0.4,0.3,0.6
				v24.9C80.3,223.8,80.2,223.9,80,223.8z"/>
			
				<linearGradient id="SVGID_27_" gradientUnits="userSpaceOnUse" x1="-370.3727" y1="-2181.7019" x2="-370.3727" y2="-2154.0989" gradientTransform="matrix(0.866 0.5 0 -1.1547 402.8877 -2101.1614)">
				<stop  offset="0" style="stop-color:#3F51B5"/>
				<stop  offset="0.2126" style="stop-color:#3C58BB"/>
				<stop  offset="0.5181" style="stop-color:#346BCC"/>
				<stop  offset="0.8783" style="stop-color:#268AE8"/>
				<stop  offset="1" style="stop-color:#2196F3"/>
			</linearGradient>
			<path class="st28" d="M82.2,225.1L82.2,225.1c-0.2-0.1-0.4-0.4-0.4-0.6v-24.9c0-0.2,0.1-0.3,0.3-0.2l0.1,0
				c0.2,0.1,0.3,0.4,0.3,0.6v24.9C82.5,225.1,82.3,225.2,82.2,225.1z"/>
			
				<linearGradient id="SVGID_28_" gradientUnits="userSpaceOnUse" x1="-367.8438" y1="-2181.7019" x2="-367.8438" y2="-2154.0989" gradientTransform="matrix(0.866 0.5 0 -1.1547 402.8877 -2101.1614)">
				<stop  offset="0" style="stop-color:#3F51B5"/>
				<stop  offset="0.2126" style="stop-color:#3C58BB"/>
				<stop  offset="0.5181" style="stop-color:#346BCC"/>
				<stop  offset="0.8783" style="stop-color:#268AE8"/>
				<stop  offset="1" style="stop-color:#2196F3"/>
			</linearGradient>
			<path class="st29" d="M84.4,226.3L84.4,226.3c-0.2-0.1-0.4-0.4-0.4-0.6v-24.9c0-0.2,0.1-0.3,0.3-0.2l0.1,0
				c0.2,0.1,0.3,0.4,0.3,0.6v24.9C84.7,226.3,84.5,226.4,84.4,226.3z"/>
		</g>
	</g>
	
		<linearGradient id="SVGID_29_" gradientUnits="userSpaceOnUse" x1="161.1041" y1="294.5141" x2="145.967" y2="259.4908" gradientTransform="matrix(1 0 0 -1 0 304)">
		<stop  offset="0" style="stop-color:#14A4DB"/>
		<stop  offset="0.1958" style="stop-color:#1AABDC"/>
		<stop  offset="0.4773" style="stop-color:#2BBEE0"/>
		<stop  offset="0.809" style="stop-color:#46DDE5"/>
		<stop  offset="1" style="stop-color:#58F2E9"/>
	</linearGradient>
	<path class="st30" d="M154.8,42.6c-0.3-0.9-0.9-1.7-1.9-2.2c0.9,0.1,1.7-0.1,2.4-0.5c0.7-0.4,1.2-1,1.6-1.9
		c0.5-1.2,0.3-2.3-0.4-3.4c-0.6-0.9-1.6-1.7-2.9-2.3l0.8-2.1l-2.9-1.1l-0.8,2.1l-1.6-0.6l0.8-2.1l-2.9-1.1l-0.8,2.1l-2.7-1l-1.1,2.9
		l2.1,0.8l-3.8,9.8l-2.1-0.8l-1.1,2.8l2.7,1l-0.8,2.1l2.9,1.1l0.8-2.1l1.6,0.6l-0.8,2.1l2.9,1.1l0.8-2.1c1.6,0.5,3,0.6,4.2,0.3
		c1.3-0.4,2.3-1.2,2.8-2.5C155.1,44.5,155.1,43.5,154.8,42.6z M148.2,33.5l3.4,1.3c0.7,0.2,1.1,0.6,1.4,1s0.3,0.9,0.1,1.5
		c-0.2,0.5-0.6,0.9-1.1,1c-0.5,0.2-1.1,0.1-1.7-0.2l-3.4-1.3L148.2,33.5z M150,44.8c-0.6,0.2-1.3,0.1-2.1-0.2l-3.4-1.3l1.4-3.7
		l3.4,1.3c0.8,0.3,1.4,0.7,1.8,1.2c0.4,0.5,0.4,1,0.2,1.6C151,44.3,150.6,44.7,150,44.8z"/>
	
		<linearGradient id="SVGID_30_" gradientUnits="userSpaceOnUse" x1="188.21" y1="184.2702" x2="188.21" y2="193.8095" gradientTransform="matrix(1 0 0 -1 0 304)">
		<stop  offset="0" style="stop-color:#14A4DB"/>
		<stop  offset="0.1958" style="stop-color:#1AABDC"/>
		<stop  offset="0.4773" style="stop-color:#2BBEE0"/>
		<stop  offset="0.809" style="stop-color:#46DDE5"/>
		<stop  offset="1" style="stop-color:#58F2E9"/>
	</linearGradient>
	<path class="st31" d="M192.1,113.6c0,2.1-1.7,3.8-3.8,3.8s-3.8-1.7-3.8-3.8s1.7-3.8,3.8-3.8S192.1,111.4,192.1,113.6z"/>
	
		<linearGradient id="SVGID_31_" gradientUnits="userSpaceOnUse" x1="188.2" y1="121.1365" x2="188.2" y2="125.6241" gradientTransform="matrix(1 0 0 -1 0 304)">
		<stop  offset="0" style="stop-color:#14A4DB"/>
		<stop  offset="0.1958" style="stop-color:#1AABDC"/>
		<stop  offset="0.4773" style="stop-color:#2BBEE0"/>
		<stop  offset="0.809" style="stop-color:#46DDE5"/>
		<stop  offset="1" style="stop-color:#58F2E9"/>
	</linearGradient>
	<path class="st32" d="M190,179.9c0,1-0.8,1.8-1.8,1.8s-1.8-0.8-1.8-1.8s0.8-1.8,1.8-1.8C189.2,178.1,190,179,190,179.9z"/>
	
		<linearGradient id="SVGID_32_" gradientUnits="userSpaceOnUse" x1="207.58" y1="151.0632" x2="207.58" y2="154.1847" gradientTransform="matrix(1 0 0 -1 0 304)">
		<stop  offset="0" style="stop-color:#14A4DB"/>
		<stop  offset="0.1958" style="stop-color:#1AABDC"/>
		<stop  offset="0.4773" style="stop-color:#2BBEE0"/>
		<stop  offset="0.809" style="stop-color:#46DDE5"/>
		<stop  offset="1" style="stop-color:#58F2E9"/>
	</linearGradient>
	<path class="st33" d="M208.8,150.9c0,0.7-0.6,1.3-1.3,1.3s-1.3-0.6-1.3-1.3c0-0.7,0.6-1.3,1.3-1.3S208.8,150.2,208.8,150.9z"/>
	
		<linearGradient id="SVGID_33_" gradientUnits="userSpaceOnUse" x1="180.5" y1="232.2951" x2="180.5" y2="235.4166" gradientTransform="matrix(1 0 0 -1 0 304)">
		<stop  offset="0" style="stop-color:#14A4DB"/>
		<stop  offset="0.1958" style="stop-color:#1AABDC"/>
		<stop  offset="0.4773" style="stop-color:#2BBEE0"/>
		<stop  offset="0.809" style="stop-color:#46DDE5"/>
		<stop  offset="1" style="stop-color:#58F2E9"/>
	</linearGradient>
	<path class="st34" d="M181.8,69.7c0,0.7-0.6,1.3-1.3,1.3s-1.3-0.6-1.3-1.3c0-0.7,0.6-1.3,1.3-1.3S181.8,69,181.8,69.7z"/>
	
		<linearGradient id="SVGID_34_" gradientUnits="userSpaceOnUse" x1="28.7" y1="130.1941" x2="28.7" y2="140.5272" gradientTransform="matrix(1 0 0 -1 0 304)">
		<stop  offset="0" style="stop-color:#14A4DB"/>
		<stop  offset="0.1958" style="stop-color:#1AABDC"/>
		<stop  offset="0.4773" style="stop-color:#2BBEE0"/>
		<stop  offset="0.809" style="stop-color:#46DDE5"/>
		<stop  offset="1" style="stop-color:#58F2E9"/>
	</linearGradient>
	<path class="st35" d="M32.9,167.1c0,2.3-1.9,4.2-4.2,4.2s-4.2-1.9-4.2-4.2s1.9-4.2,4.2-4.2C31,162.9,32.9,164.8,32.9,167.1z"/>
	
		<linearGradient id="SVGID_35_" gradientUnits="userSpaceOnUse" x1="46.03" y1="170.3123" x2="46.03" y2="173.4338" gradientTransform="matrix(1 0 0 -1 0 304)">
		<stop  offset="0" style="stop-color:#14A4DB"/>
		<stop  offset="0.1958" style="stop-color:#1AABDC"/>
		<stop  offset="0.4773" style="stop-color:#2BBEE0"/>
		<stop  offset="0.809" style="stop-color:#46DDE5"/>
		<stop  offset="1" style="stop-color:#58F2E9"/>
	</linearGradient>
	<path class="st36" d="M47.3,131.7c0,0.7-0.6,1.3-1.3,1.3c-0.7,0-1.3-0.6-1.3-1.3c0-0.7,0.6-1.3,1.3-1.3
		C46.7,130.4,47.3,131,47.3,131.7z"/>
	
		<linearGradient id="SVGID_36_" gradientUnits="userSpaceOnUse" x1="53.42" y1="233.4955" x2="53.42" y2="240.1438" gradientTransform="matrix(1 0 0 -1 0 304)">
		<stop  offset="0" style="stop-color:#14A4DB"/>
		<stop  offset="0.1958" style="stop-color:#1AABDC"/>
		<stop  offset="0.4773" style="stop-color:#2BBEE0"/>
		<stop  offset="0.809" style="stop-color:#46DDE5"/>
		<stop  offset="1" style="stop-color:#58F2E9"/>
	</linearGradient>
	<path class="st37" d="M56.1,66.2c0,1.5-1.2,2.7-2.7,2.7s-2.7-1.2-2.7-2.7s1.2-2.7,2.7-2.7C54.9,63.5,56.1,64.7,56.1,66.2z"/>
	
		<linearGradient id="SVGID_37_" gradientUnits="userSpaceOnUse" x1="16.75" y1="194.5276" x2="16.75" y2="197.6491" gradientTransform="matrix(1 0 0 -1 0 304)">
		<stop  offset="0" style="stop-color:#14A4DB"/>
		<stop  offset="0.1958" style="stop-color:#1AABDC"/>
		<stop  offset="0.4773" style="stop-color:#2BBEE0"/>
		<stop  offset="0.809" style="stop-color:#46DDE5"/>
		<stop  offset="1" style="stop-color:#58F2E9"/>
	</linearGradient>
	<path class="st38" d="M18,107.4c0,0.7-0.6,1.3-1.3,1.3c-0.7,0-1.3-0.6-1.3-1.3s0.6-1.3,1.3-1.3C17.5,106.2,18,106.8,18,107.4z"/>
	
		<linearGradient id="SVGID_38_" gradientUnits="userSpaceOnUse" x1="164.03" y1="217.2397" x2="164.03" y2="218.5416" gradientTransform="matrix(1 0 0 -1 0 304)">
		<stop  offset="0" style="stop-color:#14A4DB"/>
		<stop  offset="0.1958" style="stop-color:#1AABDC"/>
		<stop  offset="0.4773" style="stop-color:#2BBEE0"/>
		<stop  offset="0.809" style="stop-color:#46DDE5"/>
		<stop  offset="1" style="stop-color:#58F2E9"/>
	</linearGradient>
	<path class="st39" d="M164.6,85.9c0,0.3-0.2,0.5-0.5,0.5s-0.5-0.2-0.5-0.5c0-0.3,0.2-0.5,0.5-0.5S164.6,85.6,164.6,85.9z"/>
	<g>
		
			<linearGradient id="SVGID_39_" gradientUnits="userSpaceOnUse" x1="11034.4688" y1="206.55" x2="11089.0381" y2="206.55" gradientTransform="matrix(-1 0 0 -1 11192.0186 304)">
			<stop  offset="0" style="stop-color:#14A4DB"/>
			<stop  offset="0.1958" style="stop-color:#1AABDC"/>
			<stop  offset="0.4773" style="stop-color:#2BBEE0"/>
			<stop  offset="0.809" style="stop-color:#46DDE5"/>
			<stop  offset="1" style="stop-color:#58F2E9"/>
		</linearGradient>
		<polygon class="st40" points="157.6,97.5 130.4,81.6 103,97.5 130.3,113.3 		"/>
		<g>
			
				<linearGradient id="SVGID_40_" gradientUnits="userSpaceOnUse" x1="11034.4189" y1="202.58" x2="11089.0889" y2="202.58" gradientTransform="matrix(-1 0 0 -1 11192.0186 304)">
				<stop  offset="0" style="stop-color:#14A4DB"/>
				<stop  offset="0.1958" style="stop-color:#1AABDC"/>
				<stop  offset="0.4773" style="stop-color:#2BBEE0"/>
				<stop  offset="0.809" style="stop-color:#46DDE5"/>
				<stop  offset="1" style="stop-color:#58F2E9"/>
			</linearGradient>
			<polygon class="st41" points="157.6,101.4 130.3,85.7 102.9,101.3 130.3,117.2 			"/>
			
				<linearGradient id="SVGID_41_" gradientUnits="userSpaceOnUse" x1="104.4096" y1="175.8407" x2="152.2803" y2="195.7868" gradientTransform="matrix(1 0 0 -1 0 304)">
				<stop  offset="0" style="stop-color:#14A4DB"/>
				<stop  offset="0.1958" style="stop-color:#1AABDC"/>
				<stop  offset="0.4773" style="stop-color:#2BBEE0"/>
				<stop  offset="0.809" style="stop-color:#46DDE5"/>
				<stop  offset="1" style="stop-color:#58F2E9"/>
			</linearGradient>
			<polygon class="st42" points="157.6,101.4 130.3,117.2 102.9,101.3 130.3,144.8 			"/>
			
				<linearGradient id="SVGID_42_" gradientUnits="userSpaceOnUse" x1="11061.749" y1="180.92" x2="11089.0889" y2="180.92" gradientTransform="matrix(-1 0 0 -1 11192.0186 304)">
				<stop  offset="0" style="stop-color:#14A4DB"/>
				<stop  offset="0.1958" style="stop-color:#1AABDC"/>
				<stop  offset="0.4773" style="stop-color:#2BBEE0"/>
				<stop  offset="0.809" style="stop-color:#46DDE5"/>
				<stop  offset="1" style="stop-color:#58F2E9"/>
			</linearGradient>
			<polygon class="st43" points="102.9,101.3 130.3,117.2 130.3,144.8 			"/>
		</g>
		
			<linearGradient id="SVGID_43_" gradientUnits="userSpaceOnUse" x1="138.3268" y1="162.0768" x2="127.3564" y2="222.5136" gradientTransform="matrix(1 0 0 -1 0 304)">
			<stop  offset="0" style="stop-color:#14A4DB"/>
			<stop  offset="0.1958" style="stop-color:#1AABDC"/>
			<stop  offset="0.4773" style="stop-color:#2BBEE0"/>
			<stop  offset="0.809" style="stop-color:#46DDE5"/>
			<stop  offset="1" style="stop-color:#58F2E9"/>
		</linearGradient>
		<polygon class="st44" points="130.3,113.3 157.6,97.5 130.3,49 103,97.5 		"/>
		
			<linearGradient id="SVGID_44_" gradientUnits="userSpaceOnUse" x1="11061.749" y1="222.89" x2="11089.0381" y2="222.89" gradientTransform="matrix(-1 0 0 -1 11192.0186 304)">
			<stop  offset="0" style="stop-color:#14A4DB"/>
			<stop  offset="0.1958" style="stop-color:#1AABDC"/>
			<stop  offset="0.4773" style="stop-color:#2BBEE0"/>
			<stop  offset="0.809" style="stop-color:#46DDE5"/>
			<stop  offset="1" style="stop-color:#58F2E9"/>
		</linearGradient>
		<polygon class="st45" points="103,97.5 130.3,49 130.3,113.3 		"/>
		
			<linearGradient id="SVGID_45_" gradientUnits="userSpaceOnUse" x1="157.55" y1="206.815" x2="102.98" y2="206.815" gradientTransform="matrix(1 0 0 -1 0 304)">
			<stop  offset="0" style="stop-color:#14A4DB"/>
			<stop  offset="0.1958" style="stop-color:#1AABDC"/>
			<stop  offset="0.4773" style="stop-color:#2BBEE0"/>
			<stop  offset="0.809" style="stop-color:#46DDE5"/>
			<stop  offset="1" style="stop-color:#58F2E9"/>
		</linearGradient>
		<polygon class="st46" points="130.3,113.3 103,97.5 130.3,81.1 157.6,97.5 		"/>
	</g>
	<g>
		
			<linearGradient id="SVGID_46_" gradientUnits="userSpaceOnUse" x1="11080.3984" y1="259.165" x2="11107.6885" y2="259.165" gradientTransform="matrix(-1 0 0 -1 11192.0186 304)">
			<stop  offset="0" style="stop-color:#14A4DB"/>
			<stop  offset="0.1958" style="stop-color:#1AABDC"/>
			<stop  offset="0.4773" style="stop-color:#2BBEE0"/>
			<stop  offset="0.809" style="stop-color:#46DDE5"/>
			<stop  offset="1" style="stop-color:#58F2E9"/>
		</linearGradient>
		<polygon class="st47" points="111.6,44.9 98,36.9 84.3,44.9 98,52.7 		"/>
		<g>
			
				<linearGradient id="SVGID_47_" gradientUnits="userSpaceOnUse" x1="11080.3789" y1="257.175" x2="11107.709" y2="257.175" gradientTransform="matrix(-1 0 0 -1 11192.0186 304)">
				<stop  offset="0" style="stop-color:#14A4DB"/>
				<stop  offset="0.1958" style="stop-color:#1AABDC"/>
				<stop  offset="0.4773" style="stop-color:#2BBEE0"/>
				<stop  offset="0.809" style="stop-color:#46DDE5"/>
				<stop  offset="1" style="stop-color:#58F2E9"/>
			</linearGradient>
			<polygon class="st48" points="111.6,46.8 98,38.9 84.3,46.8 98,54.7 			"/>
			
				<linearGradient id="SVGID_48_" gradientUnits="userSpaceOnUse" x1="85.048" y1="243.8046" x2="108.9834" y2="253.7777" gradientTransform="matrix(1 0 0 -1 0 304)">
				<stop  offset="0" style="stop-color:#14A4DB"/>
				<stop  offset="0.1958" style="stop-color:#1AABDC"/>
				<stop  offset="0.4773" style="stop-color:#2BBEE0"/>
				<stop  offset="0.809" style="stop-color:#46DDE5"/>
				<stop  offset="1" style="stop-color:#58F2E9"/>
			</linearGradient>
			<polygon class="st49" points="111.6,46.8 98,54.7 84.3,46.8 98,68.5 			"/>
			
				<linearGradient id="SVGID_49_" gradientUnits="userSpaceOnUse" x1="11094.0381" y1="246.345" x2="11107.709" y2="246.345" gradientTransform="matrix(-1 0 0 -1 11192.0186 304)">
				<stop  offset="0" style="stop-color:#14A4DB"/>
				<stop  offset="0.1958" style="stop-color:#1AABDC"/>
				<stop  offset="0.4773" style="stop-color:#2BBEE0"/>
				<stop  offset="0.809" style="stop-color:#46DDE5"/>
				<stop  offset="1" style="stop-color:#58F2E9"/>
			</linearGradient>
			<polygon class="st50" points="84.3,46.8 98,54.7 98,68.5 			"/>
		</g>
		
			<linearGradient id="SVGID_50_" gradientUnits="userSpaceOnUse" x1="99.5214" y1="250.611" x2="94.0362" y2="280.8294" gradientTransform="matrix(1 0 0 -1 0 304)">
			<stop  offset="0" style="stop-color:#14A4DB"/>
			<stop  offset="0.1958" style="stop-color:#1AABDC"/>
			<stop  offset="0.4773" style="stop-color:#2BBEE0"/>
			<stop  offset="0.809" style="stop-color:#46DDE5"/>
			<stop  offset="1" style="stop-color:#58F2E9"/>
		</linearGradient>
		<polygon class="st51" points="98,52.7 111.6,44.9 98,20.6 84.3,44.9 		"/>
		
			<linearGradient id="SVGID_51_" gradientUnits="userSpaceOnUse" x1="11094.0381" y1="267.335" x2="11107.6885" y2="267.335" gradientTransform="matrix(-1 0 0 -1 11192.0186 304)">
			<stop  offset="0" style="stop-color:#14A4DB"/>
			<stop  offset="0.1958" style="stop-color:#1AABDC"/>
			<stop  offset="0.4773" style="stop-color:#2BBEE0"/>
			<stop  offset="0.809" style="stop-color:#46DDE5"/>
			<stop  offset="1" style="stop-color:#58F2E9"/>
		</linearGradient>
		<polygon class="st52" points="84.3,44.9 98,20.6 98,52.7 		"/>
		
			<linearGradient id="SVGID_52_" gradientUnits="userSpaceOnUse" x1="111.62" y1="259.295" x2="84.33" y2="259.295" gradientTransform="matrix(1 0 0 -1 0 304)">
			<stop  offset="0" style="stop-color:#14A4DB"/>
			<stop  offset="0.1958" style="stop-color:#1AABDC"/>
			<stop  offset="0.4773" style="stop-color:#2BBEE0"/>
			<stop  offset="0.809" style="stop-color:#46DDE5"/>
			<stop  offset="1" style="stop-color:#58F2E9"/>
		</linearGradient>
		<polygon class="st53" points="98,52.7 84.3,44.9 98,36.7 111.6,44.9 		"/>
	</g>
	
		<linearGradient id="SVGID_53_" gradientUnits="userSpaceOnUse" x1="205.2771" y1="373.8636" x2="197.4433" y2="310.6939" gradientTransform="matrix(0.9989 -4.580000e-02 -4.580000e-02 -0.9989 -116.9367 440.99)">
		<stop  offset="0" style="stop-color:#14A4DB"/>
		<stop  offset="0.1958" style="stop-color:#1AABDC"/>
		<stop  offset="0.4773" style="stop-color:#2BBEE0"/>
		<stop  offset="0.809" style="stop-color:#46DDE5"/>
		<stop  offset="1" style="stop-color:#58F2E9"/>
	</linearGradient>
	<path class="st54" d="M83.6,103.1c-1.7-1-3.7-1.3-6-1c1.6-1.1,2.6-2.5,3.1-4.1s0.5-3.3-0.2-5.1c-0.9-2.5-2.7-4.1-5.3-4.8
		c-2.2-0.6-4.8-0.4-7.6,0.4l-1.6-4.5l-6,2.2l1.6,4.4l-3.3,1.2l-1.6-4.4l-6,2.2l1.6,4.4l-5.6,2.1l2.2,6l4.3-1.6l7.5,20.4l-4.3,1.6
		l2.2,6l5.6-2.1l1.6,4.4l6-2.2l-1.6-4.4l3.2-1.2l1.6,4.4l6-2.2l-1.6-4.4c3.2-1.3,5.5-3.1,7-5.3c1.6-2.4,1.9-5,0.9-7.8
		C86.6,105.7,85.4,104.1,83.6,103.1z M60.7,97.8l7.2-2.7c1.4-0.5,2.6-0.7,3.6-0.3s1.7,1,2.1,2.2c0.4,1.1,0.3,2.2-0.2,3.1
		c-0.6,0.9-1.5,1.6-2.9,2.2l-7.2,2.7L60.7,97.8z M79.1,113.1c-0.7,1.1-2,1.9-3.7,2.5l-7.2,2.7l-2.8-7.7l7.2-2.7
		c1.7-0.7,3.2-0.8,4.4-0.5c1.2,0.3,2.1,1.1,2.5,2.2C80,110.9,79.9,112,79.1,113.1z"/>
</g>
</svg>
