<?xml version="1.0" encoding="utf-8"?>
<!-- Generator: Adobe Illustrator 24.1.2, SVG Export Plug-In . SVG Version: 6.00 Build 0)  -->
<svg version="1.1" id="Layer_1" xmlns="http://www.w3.org/2000/svg" xmlns:xlink="http://www.w3.org/1999/xlink" x="0px" y="0px"
	 viewBox="0 0 224.06 301.15" style="enable-background:new 0 0 224.06 301.15;" xml:space="preserve">
<style type="text/css">
	.st0{fill:url(#SVGID_1_);}
	.st1{fill:url(#SVGID_2_);}
	.st2{fill:url(#SVGID_3_);}
	.st3{opacity:0.39;fill:url(#SVGID_4_);}
	.st4{fill:url(#SVGID_5_);}
	.st5{fill:url(#SVGID_6_);}
	.st6{fill:url(#SVGID_7_);}
	.st7{fill:url(#SVGID_8_);}
	.st8{fill:#FFFFFF;}
	.st9{fill:url(#SVGID_9_);}
	.st10{fill:url(#SVGID_10_);}
	.st11{opacity:0.44;fill:url(#SVGID_11_);}
	.st12{fill:url(#SVGID_12_);}
	.st13{fill:url(#SVGID_13_);}
	.st14{fill:url(#SVGID_14_);}
	.st15{opacity:0.67;}
	.st16{fill:url(#SVGID_15_);}
	.st17{fill:url(#SVGID_16_);}
	.st18{fill:url(#SVGID_17_);}
	.st19{fill:url(#SVGID_18_);}
	.st20{fill:url(#SVGID_19_);}
	.st21{fill:url(#SVGID_20_);}
	.st22{fill:url(#SVGID_21_);}
	.st23{fill:url(#SVGID_22_);}
	.st24{fill:url(#SVGID_23_);}
	.st25{fill:url(#SVGID_24_);}
	.st26{fill:url(#SVGID_25_);}
	.st27{fill:url(#SVGID_26_);}
	.st28{fill:url(#SVGID_27_);}
	.st29{fill:url(#SVGID_28_);}
	.st30{fill:url(#SVGID_29_);}
	.st31{fill:url(#SVGID_30_);}
	.st32{fill:url(#SVGID_31_);}
	.st33{fill:url(#SVGID_32_);}
	.st34{fill:url(#SVGID_33_);}
	.st35{fill:url(#SVGID_34_);}
	.st36{fill:url(#SVGID_35_);}
	.st37{fill:url(#SVGID_36_);}
	.st38{fill:url(#SVGID_37_);}
	.st39{fill:url(#SVGID_38_);}
	.st40{fill:url(#SVGID_39_);}
	.st41{opacity:0.25;fill:url(#SVGID_40_);}
	.st42{opacity:0.65;fill:url(#SVGID_41_);}
	.st43{opacity:0.5;fill:url(#SVGID_42_);}
	.st44{fill:url(#SVGID_43_);}
	.st45{fill:url(#SVGID_44_);}
	.st46{opacity:0.67;fill:url(#SVGID_45_);}
	.st47{fill:url(#SVGID_46_);}
	.st48{opacity:0.25;fill:url(#SVGID_47_);}
	.st49{opacity:0.65;fill:url(#SVGID_48_);}
	.st50{opacity:0.5;fill:url(#SVGID_49_);}
	.st51{fill:url(#SVGID_50_);}
	.st52{fill:url(#SVGID_51_);}
	.st53{opacity:0.67;fill:url(#SVGID_52_);}
	.st54{fill:url(#SVGID_53_);}
</style>
<g>
	<g>
		<linearGradient id="SVGID_1_" gradientUnits="userSpaceOnUse" x1="0.0715" y1="236.6389" x2="224.0592" y2="236.6389">
			<stop  offset="0" style="stop-color:#14A4DB"/>
			<stop  offset="0.1958" style="stop-color:#1AABDC"/>
			<stop  offset="0.4773" style="stop-color:#2BBEE0"/>
			<stop  offset="0.809" style="stop-color:#46DDE5"/>
			<stop  offset="1" style="stop-color:#58F2E9"/>
		</linearGradient>
		<path class="st0" d="M219.48,229.57l-94.8-54.73c-3.15-1.82-7.37-2.71-11.79-2.71c-5.36,0-11.01,1.3-15.42,3.85L6.63,228.43
			c-4.25,2.46-6.65,5.68-6.56,8.85c0.07,2.48,1.69,4.77,4.58,6.43l94.8,54.73c6.96,4.02,19.16,3.51,27.21-1.14l90.83-52.44
			c4.33-2.5,6.72-5.77,6.56-8.98C223.93,233.41,222.35,231.23,219.48,229.57z"/>
		<linearGradient id="SVGID_2_" gradientUnits="userSpaceOnUse" x1="78.2064" y1="219.5751" x2="275.1935" y2="219.5751">
			<stop  offset="0" style="stop-color:#3F51B5"/>
			<stop  offset="0.2126" style="stop-color:#3C58BB"/>
			<stop  offset="0.5181" style="stop-color:#346BCC"/>
			<stop  offset="0.8783" style="stop-color:#268AE8"/>
			<stop  offset="1" style="stop-color:#2196F3"/>
		</linearGradient>
		<path class="st1" d="M219.41,212.51l-94.8-54.73c-3.15-1.82-7.37-2.71-11.79-2.71c-5.36,0-11.01,1.3-15.42,3.85L6.56,211.36
			c-4.25,2.46-6.65,5.68-6.56,8.85c0.07,2.48,1.69,4.76,4.58,6.43l94.8,54.73c6.96,4.02,19.16,3.51,27.21-1.14l90.83-52.44
			c4.33-2.5,6.72-5.77,6.56-8.98C223.86,216.34,222.28,214.16,219.41,212.51z"/>
		<linearGradient id="SVGID_3_" gradientUnits="userSpaceOnUse" x1="112.0654" y1="263.6605" x2="112.0654" y2="145.0247">
			<stop  offset="0" style="stop-color:#14A4DB"/>
			<stop  offset="0.1958" style="stop-color:#1AABDC"/>
			<stop  offset="0.4773" style="stop-color:#2BBEE0"/>
			<stop  offset="0.809" style="stop-color:#46DDE5"/>
			<stop  offset="1" style="stop-color:#58F2E9"/>
		</linearGradient>
		<path class="st2" d="M219.48,209.91l-94.8-54.73c-3.15-1.82-7.37-2.71-11.79-2.71c-5.36,0-11.01,1.3-15.42,3.85L6.63,208.77
			c-4.25,2.46-6.65,5.68-6.56,8.85c0.07,2.48,1.69,4.77,4.58,6.43l94.8,54.73c6.96,4.02,19.16,3.51,27.21-1.14l90.83-52.44
			c4.33-2.5,6.72-5.77,6.56-8.98C223.93,213.75,222.35,211.57,219.48,209.91z"/>
		<linearGradient id="SVGID_4_" gradientUnits="userSpaceOnUse" x1="16.7533" y1="213.1405" x2="172.3192" y2="213.1405">
			<stop  offset="0" style="stop-color:#3F51B5"/>
			<stop  offset="0.2126" style="stop-color:#3C58BB"/>
			<stop  offset="0.5181" style="stop-color:#346BCC"/>
			<stop  offset="0.8783" style="stop-color:#268AE8"/>
			<stop  offset="1" style="stop-color:#2196F3"/>
		</linearGradient>
		<path class="st3" d="M152.74,240.04c-26.12,15.05-72.32,11.4-100.93,1.75c-30.55-10.3-35.05-18.18-35.06-27.6
			c-0.01-13.98,20.88-22.11,41.29-28.83c28.63-9.43,68.49-15,94.65,0.09C178.84,200.55,178.87,224.99,152.74,240.04z"/>
		<linearGradient id="SVGID_5_" gradientUnits="userSpaceOnUse" x1="49.4817" y1="209.1609" x2="174.649" y2="209.1609">
			<stop  offset="0" style="stop-color:#14A4DB"/>
			<stop  offset="0.1958" style="stop-color:#1AABDC"/>
			<stop  offset="0.4773" style="stop-color:#2BBEE0"/>
			<stop  offset="0.809" style="stop-color:#46DDE5"/>
			<stop  offset="1" style="stop-color:#58F2E9"/>
		</linearGradient>
		<ellipse class="st4" cx="112.07" cy="209.16" rx="62.58" ry="36.13"/>
		<linearGradient id="SVGID_6_" gradientUnits="userSpaceOnUse" x1="49.4817" y1="206.494" x2="174.649" y2="206.494">
			<stop  offset="0" style="stop-color:#3F51B5"/>
			<stop  offset="0.2126" style="stop-color:#3C58BB"/>
			<stop  offset="0.5181" style="stop-color:#346BCC"/>
			<stop  offset="0.8783" style="stop-color:#268AE8"/>
			<stop  offset="1" style="stop-color:#2196F3"/>
		</linearGradient>
		<ellipse class="st5" cx="112.07" cy="206.49" rx="62.58" ry="36.13"/>
		<linearGradient id="SVGID_7_" gradientUnits="userSpaceOnUse" x1="51.8116" y1="201.007" x2="172.3192" y2="201.007">
			<stop  offset="0" style="stop-color:#14A4DB"/>
			<stop  offset="0.1958" style="stop-color:#1AABDC"/>
			<stop  offset="0.4773" style="stop-color:#2BBEE0"/>
			<stop  offset="0.809" style="stop-color:#46DDE5"/>
			<stop  offset="1" style="stop-color:#58F2E9"/>
		</linearGradient>
		<path class="st6" d="M51.81,164.78v37.62h0c-0.02,8.92,5.84,17.84,17.62,24.65c23.54,13.59,61.72,13.59,85.26,0
			c11.69-6.75,17.54-15.59,17.61-24.43h0.01v-37.83H51.81z"/>
		<linearGradient id="SVGID_8_" gradientUnits="userSpaceOnUse" x1="68.5608" y1="163.4338" x2="251.8782" y2="163.4338">
			<stop  offset="0" style="stop-color:#58F2E9"/>
			<stop  offset="0.248" style="stop-color:#40D4E4"/>
			<stop  offset="0.5563" style="stop-color:#28B5DF"/>
			<stop  offset="0.818" style="stop-color:#19A2DC"/>
			<stop  offset="1" style="stop-color:#149BDB"/>
		</linearGradient>
		<ellipse class="st7" cx="112.07" cy="163.43" rx="60.25" ry="34.79"/>
		<g>
			<path class="st8" d="M111.99,192.25c-14.3,0-28.6-3.14-39.48-9.43c-10.58-6.11-16.41-14.24-16.41-22.91
				c0-8.66,5.83-16.79,16.41-22.9c21.77-12.57,57.19-12.57,78.96,0c10.58,6.11,16.41,14.24,16.41,22.9c0,8.66-5.83,16.79-16.41,22.9
				l-0.09-0.16l0.09,0.16C140.59,189.11,126.29,192.25,111.99,192.25z M111.99,127.96c-14.23,0-28.46,3.13-39.29,9.38
				c-10.46,6.04-16.22,14.06-16.22,22.58c0,8.52,5.76,16.54,16.22,22.58c21.67,12.51,56.92,12.51,78.59,0
				c10.46-6.04,16.22-14.06,16.22-22.58c0-8.52-5.76-16.54-16.22-22.58C140.45,131.09,126.22,127.96,111.99,127.96z"/>
		</g>
		<linearGradient id="SVGID_9_" gradientUnits="userSpaceOnUse" x1="67.8856" y1="171.276" x2="162.0316" y2="171.276">
			<stop  offset="0" style="stop-color:#3F51B5"/>
			<stop  offset="0.2126" style="stop-color:#3C58BB"/>
			<stop  offset="0.5181" style="stop-color:#346BCC"/>
			<stop  offset="0.8783" style="stop-color:#268AE8"/>
			<stop  offset="1" style="stop-color:#2196F3"/>
		</linearGradient>
		<path class="st9" d="M60.41,154.73v3.23h0c-0.01,7.65,5,15.29,15.11,21.13c20.18,11.65,52.91,11.65,73.09,0
			c10.02-5.79,15.04-13.36,15.1-20.95h0.01v-3.41H60.41z"/>
		<linearGradient id="SVGID_10_" gradientUnits="userSpaceOnUse" x1="112.0654" y1="100.7771" x2="112.0654" y2="167.1402">
			<stop  offset="0" style="stop-color:#14A4DB"/>
			<stop  offset="0.1958" style="stop-color:#1AABDC"/>
			<stop  offset="0.4773" style="stop-color:#2BBEE0"/>
			<stop  offset="0.809" style="stop-color:#46DDE5"/>
			<stop  offset="1" style="stop-color:#58F2E9"/>
		</linearGradient>
		<ellipse class="st10" cx="112.07" cy="154.73" rx="51.69" ry="29.84"/>
		<linearGradient id="SVGID_11_" gradientUnits="userSpaceOnUse" x1="111.9938" y1="132.3494" x2="111.9938" y2="159.8772">
			<stop  offset="0" style="stop-color:#14A4DB"/>
			<stop  offset="0.1958" style="stop-color:#1AABDC"/>
			<stop  offset="0.4773" style="stop-color:#2BBEE0"/>
			<stop  offset="0.809" style="stop-color:#46DDE5"/>
			<stop  offset="1" style="stop-color:#58F2E9"/>
		</linearGradient>
		<ellipse class="st11" cx="111.99" cy="154.73" rx="21.44" ry="12.38"/>
		<linearGradient id="SVGID_12_" gradientUnits="userSpaceOnUse" x1="112.3825" y1="137.6228" x2="112.3825" y2="158.186">
			<stop  offset="0" style="stop-color:#14A4DB"/>
			<stop  offset="0.1958" style="stop-color:#1AABDC"/>
			<stop  offset="0.4773" style="stop-color:#2BBEE0"/>
			<stop  offset="0.809" style="stop-color:#46DDE5"/>
			<stop  offset="1" style="stop-color:#58F2E9"/>
		</linearGradient>
		<path class="st12" d="M123.71,160.88c-6.25,3.61-16.39,3.61-22.65,0c-6.25-3.61-6.25-9.47,0-13.08c6.25-3.61,16.39-3.61,22.65,0
			C129.96,151.41,129.96,157.27,123.71,160.88z"/>
		<g>
			<path class="st8" d="M143.68,229.46l0.22-0.13c0.83-0.48,1.5-1.76,1.5-2.86v-29.41c0-1.1-0.67-1.61-1.5-1.13l-0.22,0.13
				c-0.83,0.48-1.5,1.76-1.5,2.86v29.41C142.18,229.43,142.85,229.94,143.68,229.46z"/>
			<linearGradient id="SVGID_13_" gradientUnits="userSpaceOnUse" x1="143.7878" y1="238.2208" x2="143.7878" y2="211.3068">
				<stop  offset="0" style="stop-color:#3F51B5"/>
				<stop  offset="0.2126" style="stop-color:#3C58BB"/>
				<stop  offset="0.5181" style="stop-color:#346BCC"/>
				<stop  offset="0.8783" style="stop-color:#268AE8"/>
				<stop  offset="1" style="stop-color:#2196F3"/>
			</linearGradient>
			<path class="st13" d="M143.68,229.46l0.22-0.13c0.83-0.48,1.5-1.76,1.5-2.86v-8.9c0-1.1-0.67-1.61-1.5-1.13l-0.22,0.13
				c-0.83,0.48-1.5,1.76-1.5,2.86v8.9C142.18,229.43,142.85,229.94,143.68,229.46z"/>
		</g>
		<path class="st8" d="M156.54,192.71c0,0.33,0.23,0.47,0.52,0.3c0.29-0.17,0.52-0.57,0.52-0.91c0-0.33-0.23-0.47-0.52-0.3
			C156.77,191.97,156.54,192.37,156.54,192.71z"/>
		<path class="st8" d="M152.52,195.02c0,0.33,0.23,0.47,0.52,0.3c0.29-0.17,0.52-0.57,0.52-0.91c0-0.33-0.23-0.47-0.52-0.3
			C152.76,194.28,152.52,194.69,152.52,195.02z"/>
		<path class="st8" d="M156.54,197.08c0,0.33,0.23,0.47,0.52,0.3c0.29-0.17,0.52-0.57,0.52-0.91c0-0.33-0.23-0.47-0.52-0.3
			C156.77,196.34,156.54,196.75,156.54,197.08z"/>
		<path class="st8" d="M152.52,199.4c0,0.33,0.23,0.47,0.52,0.3c0.29-0.17,0.52-0.57,0.52-0.91c0-0.33-0.23-0.47-0.52-0.3
			C152.76,198.66,152.52,199.07,152.52,199.4z"/>
		<path class="st8" d="M199.62,220.11c2.78,1.61,7.29,1.61,10.07,0c2.78-1.61,2.78-4.21,0-5.82c-2.78-1.61-7.29-1.61-10.07,0
			C196.84,215.9,196.84,218.5,199.62,220.11z"/>
		<linearGradient id="SVGID_14_" gradientUnits="userSpaceOnUse" x1="78.3072" y1="296.0478" x2="155.4479" y2="247.6874">
			<stop  offset="0" style="stop-color:#14A4DB"/>
			<stop  offset="0.1958" style="stop-color:#1AABDC"/>
			<stop  offset="0.4773" style="stop-color:#2BBEE0"/>
			<stop  offset="0.809" style="stop-color:#46DDE5"/>
			<stop  offset="1" style="stop-color:#58F2E9"/>
		</linearGradient>
		<path class="st14" d="M124.11,262.85l18.63-10.75l2.83,1.63l-18.63,10.75L124.11,262.85z M122.37,267.08l2.79-1.61l-2.79-1.61
			l-2.79,1.61L122.37,267.08z M117.72,269.77l2.79-1.61l-2.79-1.61l-2.79,1.61L117.72,269.77z M113.48,272.21l2.79-1.61l-2.79-1.61
			l-2.79,1.61L113.48,272.21z M131.34,267.03l18.63-10.75l-2.83-1.63l-18.63,10.75L131.34,267.03z M126.78,269.62l2.79-1.61
			l-2.79-1.61l-2.79,1.61L126.78,269.62z M122.12,272.31l2.79-1.61l-2.79-1.61l-2.79,1.61L122.12,272.31z M117.88,274.76l2.79-1.61
			l-2.79-1.61l-2.79,1.61L117.88,274.76z"/>
		<g class="st15">
			
				<linearGradient id="SVGID_15_" gradientUnits="userSpaceOnUse" x1="-2485.6003" y1="9856.6123" x2="-2413.0891" y2="9856.6123" gradientTransform="matrix(0 1 -1 0 9929.0986 2529.2297)">
				<stop  offset="0.101" style="stop-color:#000000"/>
				<stop  offset="0.1637" style="stop-color:#001920"/>
				<stop  offset="0.3019" style="stop-color:#005A73"/>
				<stop  offset="0.5" style="stop-color:#00BDF2"/>
				<stop  offset="1" style="stop-color:#000000"/>
			</linearGradient>
			<rect x="71.92" y="43.63" class="st16" width="1.14" height="72.51"/>
		</g>
		<g class="st15">
			
				<linearGradient id="SVGID_16_" gradientUnits="userSpaceOnUse" x1="-2501.7007" y1="9775.4023" x2="-2434.2683" y2="9775.4023" gradientTransform="matrix(0 1 -1 0 9929.0986 2529.2297)">
				<stop  offset="0.101" style="stop-color:#000000"/>
				<stop  offset="0.1637" style="stop-color:#001920"/>
				<stop  offset="0.3019" style="stop-color:#005A73"/>
				<stop  offset="0.5" style="stop-color:#00BDF2"/>
				<stop  offset="1" style="stop-color:#000000"/>
			</linearGradient>
			<rect x="153.13" y="27.53" class="st17" width="1.13" height="67.43"/>
		</g>
		<g class="st15">
			
				<linearGradient id="SVGID_17_" gradientUnits="userSpaceOnUse" x1="-2432.345" y1="9838.7422" x2="-2364.313" y2="9838.7422" gradientTransform="matrix(0 1 -1 0 9929.0986 2529.2297)">
				<stop  offset="0.101" style="stop-color:#000000"/>
				<stop  offset="0.1637" style="stop-color:#001920"/>
				<stop  offset="0.3019" style="stop-color:#005A73"/>
				<stop  offset="0.5" style="stop-color:#00BDF2"/>
				<stop  offset="1" style="stop-color:#000000"/>
			</linearGradient>
			<rect x="89.79" y="96.88" class="st18" width="1.14" height="68.03"/>
		</g>
		<g class="st15">
			
				<linearGradient id="SVGID_18_" gradientUnits="userSpaceOnUse" x1="-2526.4534" y1="9808.1934" x2="-2439.0505" y2="9808.1934" gradientTransform="matrix(0 1 -1 0 9929.0986 2529.2297)">
				<stop  offset="0.101" style="stop-color:#000000"/>
				<stop  offset="0.1637" style="stop-color:#001920"/>
				<stop  offset="0.3019" style="stop-color:#005A73"/>
				<stop  offset="0.5" style="stop-color:#00BDF2"/>
				<stop  offset="1" style="stop-color:#000000"/>
			</linearGradient>
			<rect x="120.34" y="2.78" class="st19" width="1.14" height="87.4"/>
		</g>
		<linearGradient id="SVGID_19_" gradientUnits="userSpaceOnUse" x1="79.9605" y1="70.1729" x2="79.9605" y2="68.1685">
			<stop  offset="0" style="stop-color:#14A4DB"/>
			<stop  offset="0.1958" style="stop-color:#1AABDC"/>
			<stop  offset="0.4773" style="stop-color:#2BBEE0"/>
			<stop  offset="0.809" style="stop-color:#46DDE5"/>
			<stop  offset="1" style="stop-color:#58F2E9"/>
		</linearGradient>
		<circle class="st20" cx="79.96" cy="68.87" r="0.81"/>
		<linearGradient id="SVGID_20_" gradientUnits="userSpaceOnUse" x1="125.5229" y1="44.7005" x2="125.5229" y2="42.6962">
			<stop  offset="0" style="stop-color:#14A4DB"/>
			<stop  offset="0.1958" style="stop-color:#1AABDC"/>
			<stop  offset="0.4773" style="stop-color:#2BBEE0"/>
			<stop  offset="0.809" style="stop-color:#46DDE5"/>
			<stop  offset="1" style="stop-color:#58F2E9"/>
		</linearGradient>
		<circle class="st21" cx="125.52" cy="43.4" r="0.81"/>
		<linearGradient id="SVGID_21_" gradientUnits="userSpaceOnUse" x1="134.8329" y1="24.4244" x2="134.8329" y2="22.4199">
			<stop  offset="0" style="stop-color:#14A4DB"/>
			<stop  offset="0.1958" style="stop-color:#1AABDC"/>
			<stop  offset="0.4773" style="stop-color:#2BBEE0"/>
			<stop  offset="0.809" style="stop-color:#46DDE5"/>
			<stop  offset="1" style="stop-color:#58F2E9"/>
		</linearGradient>
		<path class="st22" d="M135.64,23.12c0,0.45-0.36,0.81-0.81,0.81c-0.45,0-0.81-0.36-0.81-0.81c0-0.45,0.36-0.81,0.81-0.81
			C135.28,22.32,135.64,22.68,135.64,23.12z"/>
		<linearGradient id="SVGID_22_" gradientUnits="userSpaceOnUse" x1="107.9057" y1="7.2432" x2="107.9057" y2="0.3532">
			<stop  offset="0" style="stop-color:#14A4DB"/>
			<stop  offset="0.1958" style="stop-color:#1AABDC"/>
			<stop  offset="0.4773" style="stop-color:#2BBEE0"/>
			<stop  offset="0.809" style="stop-color:#46DDE5"/>
			<stop  offset="1" style="stop-color:#58F2E9"/>
		</linearGradient>
		<path class="st23" d="M110.68,2.78c0,1.53-1.24,2.78-2.78,2.78c-1.53,0-2.78-1.24-2.78-2.78c0-1.53,1.24-2.78,2.78-2.78
			C109.44,0,110.68,1.24,110.68,2.78z"/>
		<linearGradient id="SVGID_23_" gradientUnits="userSpaceOnUse" x1="66.647" y1="40.9594" x2="66.647" y2="38.9549">
			<stop  offset="0" style="stop-color:#14A4DB"/>
			<stop  offset="0.1958" style="stop-color:#1AABDC"/>
			<stop  offset="0.4773" style="stop-color:#2BBEE0"/>
			<stop  offset="0.809" style="stop-color:#46DDE5"/>
			<stop  offset="1" style="stop-color:#58F2E9"/>
		</linearGradient>
		<path class="st24" d="M67.45,39.66c0,0.45-0.36,0.81-0.81,0.81c-0.45,0-0.81-0.36-0.81-0.81c0-0.45,0.36-0.81,0.81-0.81
			C67.09,38.85,67.45,39.21,67.45,39.66z"/>
		<linearGradient id="SVGID_24_" gradientUnits="userSpaceOnUse" x1="154.5042" y1="130.5859" x2="154.5042" y2="128.5816">
			<stop  offset="0" style="stop-color:#14A4DB"/>
			<stop  offset="0.1958" style="stop-color:#1AABDC"/>
			<stop  offset="0.4773" style="stop-color:#2BBEE0"/>
			<stop  offset="0.809" style="stop-color:#46DDE5"/>
			<stop  offset="1" style="stop-color:#58F2E9"/>
		</linearGradient>
		<path class="st25" d="M155.31,129.29c0,0.45-0.36,0.81-0.81,0.81s-0.81-0.36-0.81-0.81c0-0.45,0.36-0.81,0.81-0.81
			S155.31,128.84,155.31,129.29z"/>
		<path class="st8" d="M81.1,136.49c0,0.45-0.36,0.81-0.81,0.81c-0.45,0-0.81-0.36-0.81-0.81c0-0.45,0.36-0.81,0.81-0.81
			C80.74,135.68,81.1,136.05,81.1,136.49z"/>
		<circle class="st8" cx="126.33" cy="173.03" r="0.81"/>
		<g>
			
				<linearGradient id="SVGID_25_" gradientUnits="userSpaceOnUse" x1="-463.6218" y1="2801.7925" x2="-463.6218" y2="2774.1897" gradientTransform="matrix(0.866 0.5 0 1.1547 479.2677 -2773.0806)">
				<stop  offset="0" style="stop-color:#3F51B5"/>
				<stop  offset="0.2126" style="stop-color:#3C58BB"/>
				<stop  offset="0.5181" style="stop-color:#346BCC"/>
				<stop  offset="0.8783" style="stop-color:#268AE8"/>
				<stop  offset="1" style="stop-color:#2196F3"/>
			</linearGradient>
			<path class="st26" d="M77.79,222.53l-0.05-0.03c-0.17-0.1-0.31-0.36-0.31-0.59v-24.87c0-0.23,0.14-0.33,0.31-0.23l0.05,0.03
				c0.17,0.1,0.31,0.36,0.31,0.59v24.87C78.1,222.53,77.96,222.63,77.79,222.53z"/>
			
				<linearGradient id="SVGID_26_" gradientUnits="userSpaceOnUse" x1="-461.0938" y1="2801.7927" x2="-461.0938" y2="2774.1895" gradientTransform="matrix(0.866 0.5 0 1.1547 479.2677 -2773.0806)">
				<stop  offset="0" style="stop-color:#3F51B5"/>
				<stop  offset="0.2126" style="stop-color:#3C58BB"/>
				<stop  offset="0.5181" style="stop-color:#346BCC"/>
				<stop  offset="0.8783" style="stop-color:#268AE8"/>
				<stop  offset="1" style="stop-color:#2196F3"/>
			</linearGradient>
			<path class="st27" d="M79.98,223.8l-0.05-0.03c-0.17-0.1-0.31-0.36-0.31-0.59v-24.87c0-0.23,0.14-0.33,0.31-0.23l0.05,0.03
				c0.17,0.1,0.31,0.36,0.31,0.59v24.87C80.29,223.79,80.15,223.89,79.98,223.8z"/>
			
				<linearGradient id="SVGID_27_" gradientUnits="userSpaceOnUse" x1="-458.5657" y1="2801.7925" x2="-458.5657" y2="2774.1895" gradientTransform="matrix(0.866 0.5 0 1.1547 479.2677 -2773.0806)">
				<stop  offset="0" style="stop-color:#3F51B5"/>
				<stop  offset="0.2126" style="stop-color:#3C58BB"/>
				<stop  offset="0.5181" style="stop-color:#346BCC"/>
				<stop  offset="0.8783" style="stop-color:#268AE8"/>
				<stop  offset="1" style="stop-color:#2196F3"/>
			</linearGradient>
			<path class="st28" d="M82.17,225.06l-0.05-0.03c-0.17-0.1-0.31-0.36-0.31-0.59v-24.87c0-0.23,0.14-0.33,0.31-0.23l0.05,0.03
				c0.17,0.1,0.31,0.36,0.31,0.59v24.87C82.48,225.05,82.34,225.16,82.17,225.06z"/>
			
				<linearGradient id="SVGID_28_" gradientUnits="userSpaceOnUse" x1="-456.0376" y1="2801.7925" x2="-456.0376" y2="2774.1895" gradientTransform="matrix(0.866 0.5 0 1.1547 479.2677 -2773.0806)">
				<stop  offset="0" style="stop-color:#3F51B5"/>
				<stop  offset="0.2126" style="stop-color:#3C58BB"/>
				<stop  offset="0.5181" style="stop-color:#346BCC"/>
				<stop  offset="0.8783" style="stop-color:#268AE8"/>
				<stop  offset="1" style="stop-color:#2196F3"/>
			</linearGradient>
			<path class="st29" d="M84.36,226.32l-0.05-0.03c-0.17-0.1-0.31-0.36-0.31-0.59v-24.87c0-0.23,0.14-0.33,0.31-0.23l0.05,0.03
				c0.17,0.1,0.31,0.36,0.31,0.59v24.87C84.67,226.32,84.53,226.42,84.36,226.32z"/>
		</g>
	</g>
	<linearGradient id="SVGID_29_" gradientUnits="userSpaceOnUse" x1="161.097" y1="9.4828" x2="145.9599" y2="44.5061">
		<stop  offset="0" style="stop-color:#14A4DB"/>
		<stop  offset="0.1958" style="stop-color:#1AABDC"/>
		<stop  offset="0.4773" style="stop-color:#2BBEE0"/>
		<stop  offset="0.809" style="stop-color:#46DDE5"/>
		<stop  offset="1" style="stop-color:#58F2E9"/>
	</linearGradient>
	<path class="st30" d="M154.82,42.63c-0.31-0.92-0.92-1.67-1.85-2.25c0.91,0.1,1.72-0.07,2.44-0.5c0.71-0.43,1.23-1.05,1.55-1.88
		c0.46-1.19,0.33-2.33-0.39-3.4c-0.61-0.91-1.58-1.67-2.9-2.28l0.82-2.13l-2.85-1.1l-0.81,2.11l-1.56-0.6l0.81-2.11l-2.85-1.1
		l-0.81,2.11l-2.69-1.04l-1.1,2.85l2.07,0.8l-3.77,9.78l-2.07-0.8l-1.1,2.85l2.69,1.04l-0.81,2.11l2.85,1.1l0.81-2.11l1.56,0.6
		l-0.81,2.11l2.85,1.1l0.82-2.12c1.58,0.53,2.98,0.64,4.19,0.31c1.34-0.36,2.27-1.21,2.78-2.54
		C155.08,44.52,155.12,43.55,154.82,42.63z M148.19,33.45l3.45,1.33c0.67,0.24,1.14,0.58,1.4,1.02c0.26,0.44,0.29,0.93,0.09,1.46
		c-0.21,0.55-0.56,0.9-1.05,1.05c-0.49,0.16-1.07,0.11-1.73-0.15l-3.45-1.33L148.19,33.45z M150.01,44.81
		c-0.6,0.15-1.31,0.07-2.14-0.25l-3.45-1.33l1.42-3.67l3.45,1.33c0.83,0.3,1.42,0.71,1.77,1.21c0.35,0.51,0.41,1.04,0.2,1.6
		C151.02,44.29,150.61,44.66,150.01,44.81z"/>
	<linearGradient id="SVGID_30_" gradientUnits="userSpaceOnUse" x1="188.2056" y1="119.7298" x2="188.2056" y2="110.1905">
		<stop  offset="0" style="stop-color:#14A4DB"/>
		<stop  offset="0.1958" style="stop-color:#1AABDC"/>
		<stop  offset="0.4773" style="stop-color:#2BBEE0"/>
		<stop  offset="0.809" style="stop-color:#46DDE5"/>
		<stop  offset="1" style="stop-color:#58F2E9"/>
	</linearGradient>
	<path class="st31" d="M192.05,113.55c0,2.12-1.72,3.84-3.84,3.84s-3.84-1.72-3.84-3.84s1.72-3.84,3.84-3.84
		S192.05,111.42,192.05,113.55z"/>
	<linearGradient id="SVGID_31_" gradientUnits="userSpaceOnUse" x1="188.2056" y1="182.8635" x2="188.2056" y2="178.3759">
		<stop  offset="0" style="stop-color:#14A4DB"/>
		<stop  offset="0.1958" style="stop-color:#1AABDC"/>
		<stop  offset="0.4773" style="stop-color:#2BBEE0"/>
		<stop  offset="0.809" style="stop-color:#46DDE5"/>
		<stop  offset="1" style="stop-color:#58F2E9"/>
	</linearGradient>
	<path class="st32" d="M190.01,179.95c0,1-0.81,1.81-1.81,1.81c-1,0-1.81-0.81-1.81-1.81s0.81-1.81,1.81-1.81
		C189.2,178.15,190.01,178.96,190.01,179.95z"/>
	<linearGradient id="SVGID_32_" gradientUnits="userSpaceOnUse" x1="207.5806" y1="152.9368" x2="207.5806" y2="149.8153">
		<stop  offset="0" style="stop-color:#14A4DB"/>
		<stop  offset="0.1958" style="stop-color:#1AABDC"/>
		<stop  offset="0.4773" style="stop-color:#2BBEE0"/>
		<stop  offset="0.809" style="stop-color:#46DDE5"/>
		<stop  offset="1" style="stop-color:#58F2E9"/>
	</linearGradient>
	<path class="st33" d="M208.84,150.91c0,0.69-0.56,1.26-1.26,1.26s-1.26-0.56-1.26-1.26c0-0.69,0.56-1.26,1.26-1.26
		S208.84,150.22,208.84,150.91z"/>
	<linearGradient id="SVGID_33_" gradientUnits="userSpaceOnUse" x1="180.5052" y1="71.7049" x2="180.5052" y2="68.5834">
		<stop  offset="0" style="stop-color:#14A4DB"/>
		<stop  offset="0.1958" style="stop-color:#1AABDC"/>
		<stop  offset="0.4773" style="stop-color:#2BBEE0"/>
		<stop  offset="0.809" style="stop-color:#46DDE5"/>
		<stop  offset="1" style="stop-color:#58F2E9"/>
	</linearGradient>
	<path class="st34" d="M181.76,69.68c0,0.69-0.56,1.26-1.26,1.26s-1.26-0.56-1.26-1.26c0-0.69,0.56-1.26,1.26-1.26
		S181.76,68.99,181.76,69.68z"/>
	<linearGradient id="SVGID_34_" gradientUnits="userSpaceOnUse" x1="28.6973" y1="173.8059" x2="28.6973" y2="163.4728">
		<stop  offset="0" style="stop-color:#14A4DB"/>
		<stop  offset="0.1958" style="stop-color:#1AABDC"/>
		<stop  offset="0.4773" style="stop-color:#2BBEE0"/>
		<stop  offset="0.809" style="stop-color:#46DDE5"/>
		<stop  offset="1" style="stop-color:#58F2E9"/>
	</linearGradient>
	<path class="st35" d="M32.86,167.11c0,2.3-1.86,4.16-4.16,4.16c-2.3,0-4.16-1.86-4.16-4.16c0-2.3,1.86-4.16,4.16-4.16
		C31,162.94,32.86,164.81,32.86,167.11z"/>
	<linearGradient id="SVGID_35_" gradientUnits="userSpaceOnUse" x1="46.0354" y1="133.6877" x2="46.0354" y2="130.5662">
		<stop  offset="0" style="stop-color:#14A4DB"/>
		<stop  offset="0.1958" style="stop-color:#1AABDC"/>
		<stop  offset="0.4773" style="stop-color:#2BBEE0"/>
		<stop  offset="0.809" style="stop-color:#46DDE5"/>
		<stop  offset="1" style="stop-color:#58F2E9"/>
	</linearGradient>
	<path class="st36" d="M47.29,131.66c0,0.69-0.56,1.26-1.26,1.26c-0.69,0-1.26-0.56-1.26-1.26c0-0.69,0.56-1.26,1.26-1.26
		C46.73,130.41,47.29,130.97,47.29,131.66z"/>
	<linearGradient id="SVGID_36_" gradientUnits="userSpaceOnUse" x1="53.4236" y1="70.5045" x2="53.4236" y2="63.8562">
		<stop  offset="0" style="stop-color:#14A4DB"/>
		<stop  offset="0.1958" style="stop-color:#1AABDC"/>
		<stop  offset="0.4773" style="stop-color:#2BBEE0"/>
		<stop  offset="0.809" style="stop-color:#46DDE5"/>
		<stop  offset="1" style="stop-color:#58F2E9"/>
	</linearGradient>
	<path class="st37" d="M56.1,66.19c0,1.48-1.2,2.68-2.68,2.68c-1.48,0-2.68-1.2-2.68-2.68c0-1.48,1.2-2.68,2.68-2.68
		C54.9,63.52,56.1,64.71,56.1,66.19z"/>
	<linearGradient id="SVGID_37_" gradientUnits="userSpaceOnUse" x1="16.7533" y1="109.4724" x2="16.7533" y2="106.3509">
		<stop  offset="0" style="stop-color:#14A4DB"/>
		<stop  offset="0.1958" style="stop-color:#1AABDC"/>
		<stop  offset="0.4773" style="stop-color:#2BBEE0"/>
		<stop  offset="0.809" style="stop-color:#46DDE5"/>
		<stop  offset="1" style="stop-color:#58F2E9"/>
	</linearGradient>
	<path class="st38" d="M18.01,107.45c0,0.69-0.56,1.26-1.26,1.26c-0.69,0-1.26-0.56-1.26-1.26s0.56-1.26,1.26-1.26
		C17.45,106.19,18.01,106.75,18.01,107.45z"/>
	<linearGradient id="SVGID_38_" gradientUnits="userSpaceOnUse" x1="164.0286" y1="86.7603" x2="164.0286" y2="85.4584">
		<stop  offset="0" style="stop-color:#14A4DB"/>
		<stop  offset="0.1958" style="stop-color:#1AABDC"/>
		<stop  offset="0.4773" style="stop-color:#2BBEE0"/>
		<stop  offset="0.809" style="stop-color:#46DDE5"/>
		<stop  offset="1" style="stop-color:#58F2E9"/>
	</linearGradient>
	<path class="st39" d="M164.55,85.92c0,0.29-0.23,0.52-0.52,0.52s-0.52-0.23-0.52-0.52c0-0.29,0.23-0.52,0.52-0.52
		S164.55,85.63,164.55,85.92z"/>
	<g>
		
			<linearGradient id="SVGID_39_" gradientUnits="userSpaceOnUse" x1="12174.4639" y1="97.4495" x2="12229.0371" y2="97.4495" gradientTransform="matrix(-1 0 0 1 12332.0186 0)">
			<stop  offset="0" style="stop-color:#14A4DB"/>
			<stop  offset="0.1958" style="stop-color:#1AABDC"/>
			<stop  offset="0.4773" style="stop-color:#2BBEE0"/>
			<stop  offset="0.809" style="stop-color:#46DDE5"/>
			<stop  offset="1" style="stop-color:#58F2E9"/>
		</linearGradient>
		<polygon class="st40" points="157.55,97.51 130.4,81.64 102.98,97.51 130.27,113.26 		"/>
		<g>
			
				<linearGradient id="SVGID_40_" gradientUnits="userSpaceOnUse" x1="12174.415" y1="101.4187" x2="12229.0869" y2="101.4187" gradientTransform="matrix(-1 0 0 1 12332.0186 0)">
				<stop  offset="0" style="stop-color:#14A4DB"/>
				<stop  offset="0.1958" style="stop-color:#1AABDC"/>
				<stop  offset="0.4773" style="stop-color:#2BBEE0"/>
				<stop  offset="0.809" style="stop-color:#46DDE5"/>
				<stop  offset="1" style="stop-color:#58F2E9"/>
			</linearGradient>
			<polygon class="st41" points="157.6,101.4 130.32,85.65 102.93,101.35 130.27,117.19 			"/>
			<linearGradient id="SVGID_41_" gradientUnits="userSpaceOnUse" x1="104.4094" y1="128.1588" x2="152.2801" y2="108.2126">
				<stop  offset="0" style="stop-color:#14A4DB"/>
				<stop  offset="0.1958" style="stop-color:#1AABDC"/>
				<stop  offset="0.4773" style="stop-color:#2BBEE0"/>
				<stop  offset="0.809" style="stop-color:#46DDE5"/>
				<stop  offset="1" style="stop-color:#58F2E9"/>
			</linearGradient>
			<polygon class="st42" points="157.6,101.4 130.27,117.19 102.93,101.35 130.27,144.81 			"/>
			
				<linearGradient id="SVGID_42_" gradientUnits="userSpaceOnUse" x1="12201.751" y1="123.0792" x2="12229.0869" y2="123.0792" gradientTransform="matrix(-1 0 0 1 12332.0186 0)">
				<stop  offset="0" style="stop-color:#14A4DB"/>
				<stop  offset="0.1958" style="stop-color:#1AABDC"/>
				<stop  offset="0.4773" style="stop-color:#2BBEE0"/>
				<stop  offset="0.809" style="stop-color:#46DDE5"/>
				<stop  offset="1" style="stop-color:#58F2E9"/>
			</linearGradient>
			<polygon class="st43" points="102.93,101.35 130.27,117.19 130.27,144.81 			"/>
		</g>
		<linearGradient id="SVGID_43_" gradientUnits="userSpaceOnUse" x1="138.3305" y1="141.9225" x2="127.3601" y2="81.4857">
			<stop  offset="0" style="stop-color:#14A4DB"/>
			<stop  offset="0.1958" style="stop-color:#1AABDC"/>
			<stop  offset="0.4773" style="stop-color:#2BBEE0"/>
			<stop  offset="0.809" style="stop-color:#46DDE5"/>
			<stop  offset="1" style="stop-color:#58F2E9"/>
		</linearGradient>
		<polygon class="st44" points="130.27,113.26 157.55,97.51 130.27,48.96 102.98,97.51 		"/>
		
			<linearGradient id="SVGID_44_" gradientUnits="userSpaceOnUse" x1="12201.751" y1="81.1095" x2="12229.0371" y2="81.1095" gradientTransform="matrix(-1 0 0 1 12332.0186 0)">
			<stop  offset="0" style="stop-color:#14A4DB"/>
			<stop  offset="0.1958" style="stop-color:#1AABDC"/>
			<stop  offset="0.4773" style="stop-color:#2BBEE0"/>
			<stop  offset="0.809" style="stop-color:#46DDE5"/>
			<stop  offset="1" style="stop-color:#58F2E9"/>
		</linearGradient>
		<polygon class="st45" points="102.98,97.51 130.27,48.96 130.27,113.26 		"/>
		<linearGradient id="SVGID_45_" gradientUnits="userSpaceOnUse" x1="157.5546" y1="97.1851" x2="102.9819" y2="97.1851">
			<stop  offset="0" style="stop-color:#14A4DB"/>
			<stop  offset="0.1958" style="stop-color:#1AABDC"/>
			<stop  offset="0.4773" style="stop-color:#2BBEE0"/>
			<stop  offset="0.809" style="stop-color:#46DDE5"/>
			<stop  offset="1" style="stop-color:#58F2E9"/>
		</linearGradient>
		<polygon class="st46" points="130.27,113.26 102.98,97.51 130.27,81.11 157.55,97.51 		"/>
	</g>
	<g>
		
			<linearGradient id="SVGID_46_" gradientUnits="userSpaceOnUse" x1="12220.3994" y1="44.837" x2="12247.6865" y2="44.837" gradientTransform="matrix(-1 0 0 1 12332.0186 0)">
			<stop  offset="0" style="stop-color:#14A4DB"/>
			<stop  offset="0.1958" style="stop-color:#1AABDC"/>
			<stop  offset="0.4773" style="stop-color:#2BBEE0"/>
			<stop  offset="0.809" style="stop-color:#46DDE5"/>
			<stop  offset="1" style="stop-color:#58F2E9"/>
		</linearGradient>
		<polygon class="st47" points="111.62,44.87 98.04,36.93 84.33,44.87 97.98,52.74 		"/>
		<g>
			
				<linearGradient id="SVGID_47_" gradientUnits="userSpaceOnUse" x1="12220.375" y1="46.8216" x2="12247.7109" y2="46.8216" gradientTransform="matrix(-1 0 0 1 12332.0186 0)">
				<stop  offset="0" style="stop-color:#14A4DB"/>
				<stop  offset="0.1958" style="stop-color:#1AABDC"/>
				<stop  offset="0.4773" style="stop-color:#2BBEE0"/>
				<stop  offset="0.809" style="stop-color:#46DDE5"/>
				<stop  offset="1" style="stop-color:#58F2E9"/>
			</linearGradient>
			<polygon class="st48" points="111.64,46.81 98,38.94 84.31,46.79 97.98,54.71 			"/>
			<linearGradient id="SVGID_48_" gradientUnits="userSpaceOnUse" x1="85.0464" y1="60.1917" x2="108.9818" y2="50.2186">
				<stop  offset="0" style="stop-color:#14A4DB"/>
				<stop  offset="0.1958" style="stop-color:#1AABDC"/>
				<stop  offset="0.4773" style="stop-color:#2BBEE0"/>
				<stop  offset="0.809" style="stop-color:#46DDE5"/>
				<stop  offset="1" style="stop-color:#58F2E9"/>
			</linearGradient>
			<polygon class="st49" points="111.64,46.81 97.98,54.71 84.31,46.79 97.98,68.52 			"/>
			
				<linearGradient id="SVGID_49_" gradientUnits="userSpaceOnUse" x1="12234.043" y1="57.6519" x2="12247.7109" y2="57.6519" gradientTransform="matrix(-1 0 0 1 12332.0186 0)">
				<stop  offset="0" style="stop-color:#14A4DB"/>
				<stop  offset="0.1958" style="stop-color:#1AABDC"/>
				<stop  offset="0.4773" style="stop-color:#2BBEE0"/>
				<stop  offset="0.809" style="stop-color:#46DDE5"/>
				<stop  offset="1" style="stop-color:#58F2E9"/>
			</linearGradient>
			<polygon class="st50" points="84.31,46.79 97.98,54.71 97.98,68.52 			"/>
		</g>
		<linearGradient id="SVGID_50_" gradientUnits="userSpaceOnUse" x1="99.523" y1="53.3887" x2="94.0378" y2="23.1703">
			<stop  offset="0" style="stop-color:#14A4DB"/>
			<stop  offset="0.1958" style="stop-color:#1AABDC"/>
			<stop  offset="0.4773" style="stop-color:#2BBEE0"/>
			<stop  offset="0.809" style="stop-color:#46DDE5"/>
			<stop  offset="1" style="stop-color:#58F2E9"/>
		</linearGradient>
		<polygon class="st51" points="97.98,52.74 111.62,44.87 97.98,20.59 84.33,44.87 		"/>
		
			<linearGradient id="SVGID_51_" gradientUnits="userSpaceOnUse" x1="12234.043" y1="36.667" x2="12247.6865" y2="36.667" gradientTransform="matrix(-1 0 0 1 12332.0186 0)">
			<stop  offset="0" style="stop-color:#14A4DB"/>
			<stop  offset="0.1958" style="stop-color:#1AABDC"/>
			<stop  offset="0.4773" style="stop-color:#2BBEE0"/>
			<stop  offset="0.809" style="stop-color:#46DDE5"/>
			<stop  offset="1" style="stop-color:#58F2E9"/>
		</linearGradient>
		<polygon class="st52" points="84.33,44.87 97.98,20.59 97.98,52.74 		"/>
		<linearGradient id="SVGID_52_" gradientUnits="userSpaceOnUse" x1="111.6191" y1="44.7048" x2="84.3327" y2="44.7048">
			<stop  offset="0" style="stop-color:#14A4DB"/>
			<stop  offset="0.1958" style="stop-color:#1AABDC"/>
			<stop  offset="0.4773" style="stop-color:#2BBEE0"/>
			<stop  offset="0.809" style="stop-color:#46DDE5"/>
			<stop  offset="1" style="stop-color:#58F2E9"/>
		</linearGradient>
		<polygon class="st53" points="97.98,52.74 84.33,44.87 97.98,36.67 111.62,44.87 		"/>
	</g>
	
		<linearGradient id="SVGID_53_" gradientUnits="userSpaceOnUse" x1="216.4766" y1="-95.7401" x2="208.6428" y2="-32.5704" gradientTransform="matrix(0.9989 -0.0458 0.0458 0.9989 -140.8585 163.6856)">
		<stop  offset="0" style="stop-color:#14A4DB"/>
		<stop  offset="0.1958" style="stop-color:#1AABDC"/>
		<stop  offset="0.4773" style="stop-color:#2BBEE0"/>
		<stop  offset="0.809" style="stop-color:#46DDE5"/>
		<stop  offset="1" style="stop-color:#58F2E9"/>
	</linearGradient>
	<path class="st54" d="M83.63,103.06c-1.74-1.02-3.73-1.35-5.97-0.98c1.55-1.1,2.6-2.47,3.13-4.12c0.53-1.65,0.48-3.33-0.16-5.06
		c-0.92-2.5-2.68-4.09-5.27-4.78c-2.2-0.58-4.75-0.44-7.64,0.41l-1.64-4.46l-5.96,2.19l1.62,4.4l-3.26,1.2l-1.62-4.4l-5.96,2.19
		l1.62,4.4l-5.62,2.07l2.19,5.96l4.33-1.59l7.52,20.43l-4.33,1.59l2.19,5.96l5.62-2.07l1.62,4.4l5.96-2.19l-1.62-4.4l3.25-1.2
		l1.62,4.4l5.96-2.19l-1.63-4.43c3.2-1.34,5.52-3.09,6.96-5.26c1.6-2.41,1.89-5,0.87-7.77C86.63,105.65,85.37,104.08,83.63,103.06z
		 M60.72,97.82l7.21-2.65c1.38-0.54,2.57-0.65,3.58-0.32c1.01,0.33,1.72,1.04,2.13,2.15c0.42,1.14,0.35,2.17-0.2,3.09
		c-0.55,0.92-1.52,1.64-2.91,2.15l-7.21,2.65L60.72,97.82z M79.13,113.05c-0.73,1.06-1.96,1.9-3.68,2.54l-7.21,2.65l-2.82-7.67
		l7.21-2.65c1.71-0.67,3.19-0.84,4.42-0.53c1.23,0.32,2.07,1.06,2.5,2.23C80,110.86,79.86,112,79.13,113.05z"/>
</g>
</svg>
